<?xml version="1.0" encoding="UTF-8"?>
<svg xmlns="http://www.w3.org/2000/svg" xmlns:xlink="http://www.w3.org/1999/xlink" width="897px" height="913px" viewBox="0 0 897 913" version="1.1">
<g id="surface1">
<path style=" stroke:none;fill-rule:nonzero;fill:rgb(3.921569%,26.274511%,41.568628%);fill-opacity:1;" d="M 262.863281 65.320312 C 263.597656 66.789062 263.597656 66.789062 264.347656 68.289062 C 265.320312 68.164062 266.292969 68.039062 267.292969 67.914062 C 277.917969 66.726562 287.894531 67.085938 298.503906 68.289062 C 298.996094 67.308594 299.484375 66.328125 299.988281 65.320312 C 299.988281 66.300781 299.988281 67.28125 299.988281 68.289062 C 301.253906 68.222656 301.253906 68.222656 302.542969 68.15625 C 326.761719 66.929688 350.933594 66.570312 375.1875 66.613281 C 380.113281 66.617188 385.042969 66.613281 389.972656 66.605469 C 394.757812 66.597656 399.539062 66.605469 404.324219 66.609375 C 406.074219 66.605469 407.828125 66.601562 409.628906 66.597656 C 417.792969 66.621094 425.609375 66.828125 433.648438 68.289062 C 434.140625 67.308594 434.628906 66.328125 435.132812 65.320312 C 435.132812 66.300781 435.132812 67.28125 435.132812 68.289062 C 436.542969 68.238281 437.949219 68.183594 439.402344 68.128906 C 444.636719 67.9375 449.875 67.753906 455.113281 67.574219 C 457.375 67.496094 459.640625 67.414062 461.90625 67.328125 C 465.164062 67.203125 468.421875 67.09375 471.679688 66.984375 C 472.691406 66.945312 473.699219 66.90625 474.738281 66.863281 C 479.617188 66.710938 483.9375 66.75 488.597656 68.289062 C 489.085938 67.308594 489.578125 66.328125 490.082031 65.320312 C 490.082031 66.300781 490.082031 67.28125 490.082031 68.289062 C 491.636719 68.050781 493.191406 67.8125 494.792969 67.566406 C 503.722656 66.457031 512.65625 66.53125 521.640625 66.527344 C 523.351562 66.507812 525.058594 66.488281 526.820312 66.472656 C 551.289062 66.429688 567.074219 70.515625 584.828125 88.03125 C 587.046875 90.253906 589.253906 92.488281 591.457031 94.726562 C 593.074219 96.339844 594.691406 97.957031 596.308594 99.570312 C 600.660156 103.921875 604.996094 108.289062 609.332031 112.664062 C 613.882812 117.25 618.449219 121.820312 623.015625 126.390625 C 631.652344 135.042969 640.273438 143.707031 648.886719 152.378906 C 658.675781 162.234375 668.484375 172.070312 678.292969 181.902344 C 695.054688 198.710938 711.808594 215.535156 728.542969 232.371094 C 729.917969 233.75 731.292969 235.132812 732.707031 236.554688 C 733.898438 237.753906 735.089844 238.953125 736.316406 240.1875 C 738.503906 242.386719 740.726562 244.550781 742.980469 246.683594 C 745.519531 249.40625 745.519531 249.40625 745.519531 252.375 C 746.46875 252.773438 747.417969 253.171875 748.398438 253.582031 C 751.460938 255.34375 751.460938 255.34375 752.945312 259.796875 C 754.910156 260.8125 756.894531 261.800781 758.886719 262.765625 C 762.226562 265.734375 762.226562 265.734375 764.824219 268.703125 C 764.824219 269.683594 764.824219 270.664062 764.824219 271.671875 C 766.785156 272.652344 768.746094 273.632812 770.765625 274.640625 C 770.765625 275.621094 770.765625 276.601562 770.765625 277.613281 C 771.746094 277.613281 772.726562 277.613281 773.738281 277.613281 C 773.738281 278.589844 773.738281 279.570312 773.738281 280.582031 C 774.71875 280.582031 775.695312 280.582031 776.707031 280.582031 C 778.894531 282.96875 778.894531 282.96875 781.253906 286.148438 C 782.039062 287.179688 782.820312 288.214844 783.628906 289.277344 C 785.613281 292.449219 786.40625 294.753906 787.101562 298.394531 C 787.355469 299.253906 787.605469 300.113281 787.867188 301 C 788.753906 305.101562 788.785156 308.902344 788.800781 313.101562 C 788.816406 315.808594 788.816406 315.808594 788.832031 318.570312 C 788.835938 320.574219 788.839844 322.582031 788.84375 324.585938 C 788.851562 326.714844 788.859375 328.84375 788.871094 330.972656 C 788.898438 336.828125 788.914062 342.683594 788.929688 348.542969 C 788.945312 354.855469 788.972656 361.171875 789 367.484375 C 789.046875 379.859375 789.085938 392.234375 789.125 404.613281 C 789.152344 414.675781 789.183594 424.738281 789.21875 434.804688 C 789.3125 463.339844 789.402344 491.878906 789.484375 520.417969 C 789.488281 521.957031 789.492188 523.496094 789.496094 525.082031 C 789.5 526.621094 789.507812 528.164062 789.511719 529.75 C 789.582031 554.703125 789.667969 579.652344 789.761719 604.605469 C 789.855469 630.230469 789.941406 655.855469 790.011719 681.480469 C 790.054688 695.863281 790.097656 710.246094 790.15625 724.632812 C 790.207031 736.886719 790.246094 749.136719 790.269531 761.390625 C 790.28125 767.636719 790.300781 773.886719 790.332031 780.132812 C 790.359375 785.863281 790.375 791.59375 790.378906 797.324219 C 790.382812 800.355469 790.402344 803.386719 790.425781 806.417969 C 790.394531 840.046875 790.394531 840.046875 779.675781 852.132812 C 763.738281 866.75 746.070312 867.84375 725.476562 867.691406 C 722.855469 867.695312 720.230469 867.699219 717.605469 867.707031 C 710.429688 867.722656 703.253906 867.699219 696.078125 867.667969 C 688.328125 867.640625 680.574219 867.652344 672.824219 867.65625 C 659.40625 867.660156 645.988281 867.640625 632.570312 867.605469 C 613.167969 867.558594 593.765625 867.542969 574.367188 867.535156 C 542.886719 867.523438 511.410156 867.484375 479.929688 867.425781 C 449.355469 867.371094 418.78125 867.332031 388.207031 867.304688 C 385.378906 867.300781 385.378906 867.300781 382.496094 867.300781 C 373.035156 867.292969 363.578125 867.285156 354.117188 867.277344 C 275.679688 867.214844 197.246094 867.113281 118.808594 866.980469 C 118.808594 866 118.808594 865.019531 118.808594 864.007812 C 116.011719 862.363281 116.011719 862.363281 112.867188 861.039062 C 111.886719 861.53125 110.90625 862.019531 109.898438 862.523438 C 109.164062 860.320312 109.164062 860.320312 108.414062 858.070312 C 105.011719 856.03125 101.792969 854.875 98.015625 853.617188 C 97.863281 852.363281 97.710938 851.105469 97.550781 849.8125 C 96.722656 844.628906 96.722656 844.628906 94.304688 839.886719 C 88.679688 827.300781 90.386719 811.726562 90.421875 798.273438 C 90.421875 796.152344 90.421875 794.03125 90.421875 791.90625 C 90.421875 786.109375 90.429688 780.3125 90.441406 774.515625 C 90.449219 768.25 90.449219 761.984375 90.453125 755.71875 C 90.457031 744.875 90.464844 734.03125 90.480469 723.1875 C 90.5 707.503906 90.507812 691.820312 90.511719 676.136719 C 90.523438 650.683594 90.539062 625.230469 90.5625 599.773438 C 90.5625 598.253906 90.5625 596.730469 90.5625 595.164062 C 90.574219 584.355469 90.582031 573.546875 90.589844 562.738281 C 90.601562 550.375 90.613281 538.011719 90.621094 525.644531 C 90.621094 524.121094 90.625 522.597656 90.625 521.03125 C 90.644531 495.65625 90.660156 470.28125 90.671875 444.910156 C 90.675781 429.257812 90.6875 413.605469 90.707031 397.953125 C 90.71875 387.242188 90.726562 376.53125 90.730469 365.820312 C 90.734375 359.632812 90.738281 353.449219 90.75 347.261719 C 90.757812 341.605469 90.761719 335.953125 90.757812 330.296875 C 90.757812 328.242188 90.761719 326.191406 90.769531 324.140625 C 90.777344 321.363281 90.773438 318.585938 90.769531 315.808594 C 90.769531 314.261719 90.773438 312.714844 90.773438 311.121094 C 90.753906 307.125 90.753906 307.125 89.105469 302.847656 C 89.5625 299.378906 90.0625 295.917969 90.589844 292.457031 C 90.722656 289.050781 90.785156 285.640625 90.789062 282.234375 C 90.792969 279.410156 90.792969 279.410156 90.792969 276.53125 C 90.789062 274.589844 90.78125 272.652344 90.777344 270.652344 C 90.78125 268.695312 90.789062 266.738281 90.792969 264.722656 C 90.792969 262.847656 90.789062 260.96875 90.789062 259.035156 C 90.785156 257.332031 90.785156 255.625 90.785156 253.867188 C 90.621094 250.09375 90.085938 247.074219 89.105469 243.464844 C 89.585938 241.484375 90.085938 239.503906 90.589844 237.527344 C 90.65625 234.003906 90.648438 230.476562 90.589844 226.949219 C 90.425781 217.074219 90.425781 217.074219 92.074219 213.777344 C 91.097656 213.285156 90.117188 212.796875 89.105469 212.292969 C 89.105469 207.34375 89.105469 202.394531 89.105469 197.445312 C 89.089844 196.359375 89.070312 195.273438 89.054688 194.152344 C 89.039062 193.035156 89.027344 191.917969 89.011719 190.765625 C 88.996094 189.648438 88.980469 188.53125 88.960938 187.378906 C 89.105469 184.097656 89.738281 181.308594 90.589844 178.144531 C 90.589844 177.167969 90.589844 176.1875 90.589844 175.175781 C 89.609375 174.6875 88.628906 174.199219 87.621094 173.691406 C 88.601562 172.222656 89.582031 170.753906 90.589844 169.238281 C 90.171875 166.257812 89.683594 163.285156 89.105469 160.332031 C 89.839844 159.597656 89.839844 159.597656 90.589844 158.847656 C 90.363281 157.3125 90.140625 155.777344 89.90625 154.195312 C 89.125 148.601562 89.199219 143.863281 89.664062 138.25 C 90.164062 132.027344 90.628906 125.839844 90.816406 119.597656 C 91.425781 101.054688 94.742188 88.90625 108.414062 75.710938 C 109.390625 75.222656 110.371094 74.730469 111.382812 74.226562 C 110.890625 73.246094 110.402344 72.269531 109.898438 71.257812 C 112.867188 70.761719 115.835938 70.269531 118.808594 69.773438 C 120.324219 69.515625 121.84375 69.257812 123.40625 68.992188 C 136.644531 66.898438 149.558594 66.390625 162.9375 66.460938 C 165.117188 66.464844 167.300781 66.464844 169.480469 66.464844 C 174.015625 66.46875 178.554688 66.480469 183.089844 66.5 C 188.835938 66.523438 194.585938 66.53125 200.332031 66.527344 C 204.828125 66.53125 209.320312 66.539062 213.816406 66.546875 C 215.929688 66.554688 218.046875 66.554688 220.164062 66.558594 C 234.464844 66.574219 248.609375 67.175781 262.863281 68.289062 C 262.863281 67.308594 262.863281 66.328125 262.863281 65.320312 Z M 262.863281 65.320312 "/>
<path style=" stroke:none;fill-rule:nonzero;fill:rgb(25.490198%,72.156864%,74.117649%);fill-opacity:1;" d="M 145.382812 100.195312 C 147.050781 100.1875 148.71875 100.175781 150.4375 100.167969 C 156.050781 100.144531 161.660156 100.164062 167.273438 100.179688 C 171.289062 100.175781 175.304688 100.164062 179.320312 100.148438 C 189.105469 100.125 198.886719 100.128906 208.671875 100.144531 C 216.625 100.160156 224.578125 100.160156 232.527344 100.15625 C 233.660156 100.152344 234.789062 100.152344 235.953125 100.152344 C 238.253906 100.148438 240.550781 100.148438 242.847656 100.144531 C 264.398438 100.128906 285.949219 100.148438 307.5 100.179688 C 326 100.207031 344.496094 100.203125 362.996094 100.175781 C 384.46875 100.144531 405.941406 100.132812 427.414062 100.148438 C 429.703125 100.152344 431.992188 100.152344 434.28125 100.15625 C 435.972656 100.15625 435.972656 100.15625 437.695312 100.15625 C 445.636719 100.164062 453.582031 100.152344 461.523438 100.140625 C 471.203125 100.125 480.882812 100.128906 490.558594 100.160156 C 495.5 100.175781 500.4375 100.179688 505.378906 100.160156 C 510.726562 100.144531 516.078125 100.164062 521.425781 100.195312 C 522.996094 100.183594 524.5625 100.167969 526.175781 100.15625 C 536.597656 100.269531 536.597656 100.269531 541.542969 103.613281 C 544.648438 108.691406 544.34375 113.773438 544.261719 119.542969 C 544.269531 120.820312 544.273438 122.09375 544.28125 123.410156 C 544.289062 126.179688 544.285156 128.945312 544.269531 131.714844 C 544.242188 136.109375 544.253906 140.503906 544.273438 144.902344 C 544.316406 155.828125 544.296875 166.757812 544.28125 177.683594 C 544.269531 186.90625 544.28125 196.125 544.324219 205.34375 C 544.335938 209.648438 544.308594 213.953125 544.285156 218.261719 C 544.289062 241.867188 548.828125 261.625 565.359375 279.46875 C 582.886719 296.050781 603.855469 300.082031 627.015625 300.113281 C 628.308594 300.121094 629.601562 300.128906 630.933594 300.136719 C 633.71875 300.152344 636.503906 300.164062 639.285156 300.175781 C 643.691406 300.191406 648.101562 300.222656 652.507812 300.253906 C 665.03125 300.34375 677.550781 300.425781 690.074219 300.476562 C 697.753906 300.507812 705.433594 300.558594 713.113281 300.625 C 716.035156 300.644531 718.953125 300.660156 721.875 300.664062 C 725.953125 300.671875 730.027344 300.707031 734.105469 300.746094 C 735.90625 300.738281 735.90625 300.738281 737.746094 300.730469 C 744.558594 300.832031 749.019531 301.582031 754.429688 305.816406 C 758.472656 311.09375 759.429688 314.851562 759.320312 321.433594 C 759.304688 322.953125 759.292969 324.46875 759.277344 326.03125 C 759.238281 327.597656 759.203125 329.164062 759.164062 330.777344 C 759.144531 332.371094 759.125 333.96875 759.101562 335.609375 C 759.050781 339.535156 758.976562 343.460938 758.886719 347.386719 C 757.945312 347.28125 757.003906 347.179688 756.03125 347.074219 C 705.214844 341.722656 666.492188 358.121094 625.625 387.289062 C 614.929688 394.910156 604.003906 401.816406 592.554688 408.253906 C 591.140625 409.070312 589.726562 409.886719 588.265625 410.726562 C 579.066406 415.71875 569.582031 419.03125 559.605469 422.078125 C 558.367188 422.457031 557.132812 422.832031 555.859375 423.222656 C 519.511719 433.796875 477.8125 427.824219 444.699219 410.003906 C 422.40625 397.378906 404.109375 380.363281 386.269531 362.242188 C 373.996094 349.800781 361.78125 338.195312 347.511719 328.085938 C 346.011719 327.003906 346.011719 327.003906 344.484375 325.902344 C 296.066406 291.289062 239.347656 276.355469 180.171875 285.796875 C 163.320312 288.828125 147.042969 294.167969 130.992188 300.027344 C 129.539062 300.558594 128.085938 301.085938 126.589844 301.632812 C 125.492188 302.035156 124.394531 302.433594 123.261719 302.847656 C 123.125 277.402344 123.019531 251.953125 122.957031 226.507812 C 122.925781 214.691406 122.882812 202.875 122.816406 191.058594 C 122.757812 180.761719 122.71875 170.464844 122.703125 160.167969 C 122.695312 154.714844 122.679688 149.261719 122.636719 143.808594 C 122.585938 137.722656 122.585938 131.636719 122.589844 125.550781 C 122.566406 123.738281 122.546875 121.929688 122.523438 120.0625 C 122.53125 118.40625 122.539062 116.75 122.550781 115.042969 C 122.542969 113.601562 122.539062 112.164062 122.53125 110.679688 C 123.261719 106.886719 123.261719 106.886719 125.265625 103.457031 C 131.613281 99.414062 138.011719 100.132812 145.382812 100.195312 Z M 145.382812 100.195312 "/>
<path style=" stroke:none;fill-rule:nonzero;fill:rgb(89.411765%,42.352942%,23.529412%);fill-opacity:1;" d="M 239.65625 535.738281 C 241.980469 537.742188 244.269531 539.785156 246.527344 541.863281 C 247.757812 542.957031 248.988281 544.050781 250.257812 545.179688 C 271.667969 565.238281 282.441406 592.578125 294.339844 618.816406 C 303.183594 638.214844 314.152344 654.890625 328.207031 671.019531 C 329.082031 672.035156 329.957031 673.054688 330.859375 674.101562 C 354.253906 699.394531 392.59375 718.007812 426.90625 720.359375 C 432.773438 720.566406 438.636719 720.660156 444.507812 720.65625 C 445.554688 720.660156 446.601562 720.660156 447.683594 720.660156 C 498.46875 720.492188 541.570312 697.441406 580.675781 666.5625 C 582.042969 665.511719 583.410156 664.460938 584.820312 663.375 C 593.339844 656.742188 601.265625 649.546875 609.175781 642.207031 C 613.449219 638.265625 617.800781 634.433594 622.199219 630.632812 C 625.835938 627.425781 629.375 624.121094 632.929688 620.820312 C 661.0625 595.257812 694.257812 572.757812 733.546875 572.386719 C 734.546875 572.371094 735.546875 572.359375 736.574219 572.34375 C 745.175781 572.492188 750.089844 574.5625 758.886719 577.492188 C 758.886719 596.105469 758.886719 614.722656 758.886719 633.902344 C 753.984375 633.414062 749.085938 632.925781 744.035156 632.417969 C 701.78125 629.378906 663.875 652.390625 632.652344 678.441406 C 631.78125 679.167969 630.910156 679.894531 630.011719 680.640625 C 619.929688 689.085938 610.117188 697.789062 600.476562 706.734375 C 594.367188 712.371094 587.992188 717.617188 581.515625 722.820312 C 578.027344 725.679688 574.707031 728.644531 571.390625 731.699219 C 546.679688 753.84375 516.996094 772.136719 485.535156 782.824219 C 484.539062 783.164062 483.542969 783.507812 482.515625 783.859375 C 464.054688 789.804688 445.929688 792.097656 426.59375 791.917969 C 425.5625 791.910156 424.53125 791.90625 423.46875 791.902344 C 406.523438 791.792969 390.476562 790.441406 374.246094 785.328125 C 373.207031 785.003906 372.167969 784.675781 371.097656 784.339844 C 330.972656 771.300781 299.042969 745.851562 279.382812 708.316406 C 273.484375 696.617188 269.441406 684.210938 265.183594 671.851562 C 251.953125 633.480469 233.511719 599.386719 196.40625 579.441406 C 178.195312 570.726562 159.601562 568.332031 139.691406 568.492188 C 134.269531 568.523438 128.847656 568.550781 123.261719 568.582031 C 123.261719 551.925781 123.261719 535.269531 123.261719 518.109375 C 164.425781 507.820312 204.941406 508.949219 239.65625 535.738281 Z M 239.65625 535.738281 "/>
<path style=" stroke:none;fill-rule:nonzero;fill:rgb(90.980393%,54.901963%,21.960784%);fill-opacity:1;" d="M 236.128906 448.335938 C 237.226562 448.78125 238.320312 449.226562 239.449219 449.683594 C 252.472656 455.097656 264.195312 461.113281 274.742188 470.601562 C 275.90625 471.574219 277.066406 472.542969 278.265625 473.542969 C 296.132812 488.839844 308.445312 506.507812 320.269531 526.609375 C 332.175781 546.738281 344.90625 564.777344 360.878906 581.945312 C 361.789062 582.953125 362.703125 583.960938 363.640625 585 C 389.875 612.851562 425.679688 625.816406 463.199219 628.246094 C 494.898438 629.003906 525.0625 619.613281 552.457031 604.214844 C 553.84375 603.445312 553.84375 603.445312 555.253906 602.664062 C 580.6875 588.480469 602.929688 569.714844 625.296875 551.222656 C 651.5 529.570312 678.164062 509.425781 711.363281 500.292969 C 712.636719 499.929688 713.910156 499.566406 715.21875 499.191406 C 722.914062 497.316406 730.574219 497.039062 738.464844 496.953125 C 739.464844 496.941406 740.46875 496.925781 741.5 496.910156 C 748.25 496.957031 752.191406 498.0625 758.886719 500.292969 C 758.886719 518.421875 758.886719 536.546875 758.886719 555.222656 C 752.269531 555.101562 745.652344 554.976562 738.835938 554.851562 C 706.40625 554.667969 678.5 563.152344 651.957031 581.945312 C 650.582031 582.917969 649.203125 583.890625 647.78125 584.890625 C 629.890625 597.925781 613.625 612.855469 597.539062 628.019531 C 589.746094 635.328125 581.621094 642.113281 573.25 648.75 C 572.085938 649.714844 570.925781 650.683594 569.726562 651.679688 C 528.289062 685.890625 480.28125 706.808594 425.871094 701.894531 C 388.914062 697.324219 355.441406 676.351562 332.300781 647.578125 C 318.882812 629.101562 308.804688 608.246094 299.804688 587.328125 C 291.570312 568.265625 281.207031 551.4375 267.316406 535.921875 C 266.425781 534.894531 265.539062 533.863281 264.621094 532.804688 C 244.027344 510.484375 212.214844 495.785156 182.03125 494.066406 C 164.246094 493.511719 146.5625 492.976562 129.203125 497.324219 C 126.261719 498.058594 126.261719 498.058594 123.261719 498.808594 C 123.261719 484.113281 123.261719 469.414062 123.261719 454.273438 C 156.902344 437.460938 200.632812 433.574219 236.128906 448.335938 Z M 236.128906 448.335938 "/>
<path style=" stroke:none;fill-rule:nonzero;fill:rgb(40.000001%,68.235296%,61.960787%);fill-opacity:1;" d="M 204.292969 368.910156 C 206.230469 368.921875 208.164062 368.929688 210.160156 368.941406 C 236.714844 369.4375 259.277344 375.65625 282.167969 388.953125 C 283.644531 389.777344 285.117188 390.601562 286.636719 391.453125 C 297.828125 398.097656 307.042969 406.667969 316.324219 415.675781 C 317.632812 416.921875 318.9375 418.167969 320.28125 419.449219 C 327.769531 426.734375 334.527344 434.363281 341.054688 442.511719 C 346.878906 449.757812 352.894531 456.832031 358.941406 463.886719 C 360.707031 465.949219 362.460938 468.023438 364.210938 470.097656 C 389.886719 499.765625 429.226562 525.605469 469.167969 528.996094 C 475.644531 529.3125 482.113281 529.359375 488.597656 529.335938 C 489.742188 529.335938 490.890625 529.335938 492.070312 529.335938 C 511.03125 529.261719 527.433594 526.992188 545.03125 519.59375 C 547.054688 518.8125 549.074219 518.035156 551.097656 517.261719 C 579.875 505.832031 605.175781 487.683594 630.089844 469.640625 C 649.535156 455.566406 669.574219 442.273438 692.054688 433.488281 C 693.480469 432.90625 694.90625 432.324219 696.371094 431.726562 C 715.414062 425.074219 739.796875 424.160156 758.886719 430.519531 C 758.886719 446.6875 758.886719 462.855469 758.886719 479.511719 C 753.035156 479.386719 747.183594 479.265625 741.15625 479.140625 C 697.71875 478.867188 662.867188 497.210938 629.683594 524.046875 C 628.3125 525.148438 626.941406 526.246094 625.527344 527.382812 C 619.117188 532.578125 612.800781 537.871094 606.542969 543.25 C 559.746094 583.339844 510.125 613.242188 446.582031 608.40625 C 423.257812 605.847656 402.300781 593.816406 384.640625 578.976562 C 383.382812 577.957031 382.121094 576.9375 380.824219 575.890625 C 361.667969 559.683594 349.203125 538.519531 336.367188 517.304688 C 328.40625 504.210938 320.308594 491.226562 310.386719 479.511719 C 309.199219 478.109375 308.011719 476.707031 306.789062 475.261719 C 283.441406 448.394531 250.914062 428.445312 215.339844 423.097656 C 214.296875 422.933594 213.257812 422.773438 212.183594 422.605469 C 182.304688 418.820312 151.753906 422.511719 123.261719 432.003906 C 123.261719 417.796875 123.261719 403.589844 123.261719 388.953125 C 141.921875 380.472656 141.921875 380.472656 150.460938 377.632812 C 152.136719 377.0625 153.816406 376.492188 155.546875 375.90625 C 171.753906 371.070312 187.390625 368.824219 204.292969 368.910156 Z M 204.292969 368.910156 "/>
<path style=" stroke:none;fill-rule:nonzero;fill:rgb(87.843138%,32.549021%,25.882354%);fill-opacity:1;" d="M 148.300781 587.414062 C 160.871094 587.550781 171.164062 588.441406 182.667969 593.820312 C 184.035156 594.417969 185.402344 595.011719 186.808594 595.625 C 224.121094 613.746094 238.625 651.820312 251.402344 688.457031 C 267.355469 733.671875 294.664062 769.429688 338.023438 791.066406 C 368.183594 805.378906 400.371094 811.449219 433.648438 810.566406 C 435.164062 810.539062 436.679688 810.515625 438.242188 810.492188 C 506.304688 807.65625 563.242188 766.097656 611.292969 721.476562 C 617.390625 715.847656 623.753906 710.617188 630.222656 705.421875 C 634.042969 702.273438 637.660156 698.980469 641.285156 695.605469 C 667.832031 671.574219 701.203125 651.199219 737.914062 651.476562 C 755.089844 652.378906 755.089844 652.378906 758.886719 656.171875 C 759.023438 658.269531 759.058594 660.371094 759.054688 662.472656 C 759.054688 663.8125 759.054688 665.148438 759.054688 666.527344 C 759.046875 667.980469 759.039062 669.433594 759.03125 670.929688 C 759.027344 673.152344 759.027344 673.152344 759.023438 675.417969 C 759.015625 680.167969 758.996094 684.917969 758.980469 689.667969 C 758.972656 692.878906 758.964844 696.089844 758.957031 699.300781 C 758.941406 707.195312 758.917969 715.085938 758.886719 722.976562 C 757.296875 722.664062 755.710938 722.351562 754.078125 722.027344 C 751.949219 721.617188 749.824219 721.207031 747.695312 720.796875 C 746.132812 720.488281 746.132812 720.488281 744.542969 720.171875 C 714.425781 714.402344 687.742188 723.132812 662.355469 739.308594 C 647.851562 749.152344 634.628906 760.445312 621.9375 772.5 C 617.683594 776.53125 613.320312 780.386719 608.878906 784.210938 C 606.6875 786.140625 604.535156 788.113281 602.40625 790.113281 C 569.695312 820.722656 539.28125 837.484375 493.949219 837.527344 C 492.007812 837.535156 490.070312 837.542969 488.074219 837.550781 C 482.792969 837.570312 477.515625 837.578125 472.238281 837.585938 C 468.929688 837.589844 465.621094 837.59375 462.3125 837.601562 C 451.921875 837.621094 441.53125 837.636719 431.144531 837.640625 C 419.214844 837.648438 407.285156 837.675781 395.355469 837.71875 C 386.089844 837.75 376.828125 837.765625 367.5625 837.765625 C 362.046875 837.769531 356.535156 837.777344 351.019531 837.804688 C 344.859375 837.832031 338.699219 837.828125 332.535156 837.816406 C 329.851562 837.835938 329.851562 837.835938 327.109375 837.859375 C 310.527344 837.777344 293.847656 835.417969 279.011719 827.636719 C 278.027344 827.132812 277.046875 826.625 276.03125 826.105469 C 250.367188 812.195312 233.871094 786.640625 225.480469 759.199219 C 223.78125 753.386719 222.144531 747.558594 220.539062 741.71875 C 213.808594 717.351562 206.742188 693.632812 190.09375 673.988281 C 189.105469 672.816406 188.117188 671.644531 187.097656 670.4375 C 172.648438 654.707031 153.40625 645.828125 132.503906 642.707031 C 130.773438 642.445312 129.039062 642.1875 127.253906 641.917969 C 125.9375 641.722656 124.621094 641.527344 123.261719 641.328125 C 123.226562 633.953125 123.199219 626.582031 123.183594 619.207031 C 123.175781 616.699219 123.164062 614.1875 123.152344 611.679688 C 123.132812 608.078125 123.125 604.480469 123.117188 600.878906 C 123.109375 599.75 123.101562 598.621094 123.09375 597.457031 C 123.09375 594.761719 123.171875 592.0625 123.261719 589.367188 C 127.746094 584.886719 142.242188 587.417969 148.300781 587.414062 Z M 148.300781 587.414062 "/>
<path style=" stroke:none;fill-rule:nonzero;fill:rgb(94.117647%,69.01961%,22.352941%);fill-opacity:1;" d="M 216.082031 302.476562 C 217.746094 302.464844 219.410156 302.453125 221.125 302.441406 C 272.1875 302.5625 317.335938 324.765625 354.179688 358.816406 C 357.265625 361.644531 360.402344 364.378906 363.578125 367.109375 C 368.703125 371.578125 373.492188 376.273438 378.226562 381.152344 C 406.078125 409.84375 439.050781 432.425781 478.203125 442.398438 C 479.261719 442.675781 480.320312 442.953125 481.414062 443.238281 C 492.898438 445.910156 504.433594 445.957031 516.164062 445.921875 C 517.21875 445.921875 518.277344 445.921875 519.363281 445.921875 C 535.578125 445.863281 550.410156 444.710938 565.824219 439.425781 C 566.785156 439.117188 567.746094 438.808594 568.734375 438.488281 C 592.5625 430.753906 613.816406 418.390625 634.339844 404.21875 C 642.613281 398.527344 650.992188 392.988281 659.382812 387.46875 C 660.675781 386.609375 661.96875 385.753906 663.300781 384.871094 C 673.742188 378.246094 684.921875 373.808594 696.511719 369.652344 C 697.875 369.144531 699.242188 368.632812 700.648438 368.105469 C 711.191406 364.796875 721.753906 364.792969 732.710938 364.734375 C 734.265625 364.726562 735.820312 364.71875 737.425781 364.710938 C 745.683594 364.789062 750.773438 365.464844 758.886719 368.167969 C 758.886719 381.886719 758.886719 395.605469 758.886719 409.738281 C 753.496094 409.246094 748.105469 408.757812 742.550781 408.253906 C 717.726562 406.910156 695.222656 410.964844 672.75 421.613281 C 671.257812 422.320312 671.257812 422.320312 669.734375 423.039062 C 652.667969 431.277344 637.472656 441.5625 622.257812 452.789062 C 576.808594 486.289062 528.464844 517.910156 469.304688 509.996094 C 442.652344 505.238281 418.6875 494.027344 398.007812 476.542969 C 396.25 475.058594 396.25 475.058594 394.457031 473.542969 C 380.21875 461.125 368.121094 447.238281 356.609375 432.328125 C 349.613281 423.328125 342.015625 415.011719 334.148438 406.765625 C 332.851562 405.375 331.554688 403.984375 330.21875 402.550781 C 307.542969 378.886719 279.542969 363.347656 248.011719 354.808594 C 246.949219 354.515625 245.886719 354.226562 244.789062 353.925781 C 232.65625 351.054688 220.308594 351.25 207.914062 351.28125 C 206.175781 351.28125 206.175781 351.28125 204.40625 351.285156 C 187.046875 351.332031 171.0625 352.398438 154.449219 357.777344 C 153.433594 358.09375 152.417969 358.410156 151.371094 358.738281 C 144.917969 360.753906 138.542969 362.9375 132.175781 365.199219 C 129.234375 366.179688 126.292969 367.160156 123.261719 368.167969 C 123.261719 353.960938 123.261719 339.753906 123.261719 325.117188 C 135.769531 318.804688 147.847656 313.667969 161.320312 309.808594 C 163.175781 309.269531 163.175781 309.269531 165.066406 308.71875 C 181.96875 304.066406 198.585938 302.355469 216.082031 302.476562 Z M 216.082031 302.476562 "/>
<path style=" stroke:none;fill-rule:nonzero;fill:rgb(3.137255%,27.058825%,41.176471%);fill-opacity:1;" d="M 201.515625 157.910156 C 204.414062 157.894531 204.414062 157.894531 207.371094 157.878906 C 212.667969 157.851562 217.960938 157.871094 223.257812 157.898438 C 228.800781 157.921875 234.34375 157.910156 239.886719 157.902344 C 249.195312 157.894531 258.503906 157.917969 267.8125 157.960938 C 278.574219 158.007812 289.332031 158.007812 300.09375 157.984375 C 310.449219 157.960938 320.800781 157.96875 331.152344 157.996094 C 335.558594 158.003906 339.964844 158.003906 344.371094 157.992188 C 350.519531 157.980469 356.671875 158.015625 362.824219 158.054688 C 364.652344 158.046875 366.484375 158.035156 368.367188 158.027344 C 370.878906 158.054688 370.878906 158.054688 373.441406 158.082031 C 374.894531 158.085938 376.351562 158.089844 377.847656 158.097656 C 382.742188 159.058594 384.519531 160.957031 387.609375 164.785156 C 388.367188 167.65625 388.367188 167.65625 388.378906 170.679688 C 388.398438 171.820312 388.417969 172.960938 388.4375 174.132812 C 388.425781 175.351562 388.414062 176.566406 388.398438 177.820312 C 388.40625 179.085938 388.410156 180.347656 388.417969 181.648438 C 388.421875 184.3125 388.410156 186.976562 388.386719 189.644531 C 388.355469 193.71875 388.386719 197.792969 388.421875 201.871094 C 388.417969 204.460938 388.410156 207.054688 388.398438 209.648438 C 388.410156 210.863281 388.425781 212.082031 388.4375 213.335938 C 388.410156 215.042969 388.410156 215.042969 388.378906 216.789062 C 388.375 217.785156 388.371094 218.78125 388.367188 219.8125 C 387.242188 224.089844 385.050781 225.832031 381.671875 228.621094 C 377.847656 229.367188 377.847656 229.367188 373.441406 229.375 C 371.765625 229.390625 370.09375 229.410156 368.367188 229.425781 C 366.539062 229.414062 364.707031 229.402344 362.824219 229.390625 C 360.890625 229.398438 358.957031 229.410156 356.96875 229.421875 C 351.671875 229.449219 346.375 229.4375 341.078125 229.417969 C 335.535156 229.402344 329.992188 229.417969 324.449219 229.425781 C 315.140625 229.4375 305.832031 229.421875 296.523438 229.394531 C 285.765625 229.363281 275.003906 229.375 264.242188 229.40625 C 255.003906 229.433594 245.761719 229.4375 236.523438 229.421875 C 231.003906 229.410156 225.488281 229.410156 219.96875 229.429688 C 213.816406 229.449219 207.667969 229.421875 201.515625 229.390625 C 199.683594 229.402344 197.855469 229.414062 195.96875 229.425781 C 194.296875 229.410156 192.621094 229.390625 190.898438 229.375 C 189.441406 229.371094 187.988281 229.371094 186.488281 229.367188 C 181.527344 228.398438 179.765625 226.664062 176.726562 222.683594 C 176.136719 218.273438 175.894531 214.429688 175.9375 210.023438 C 175.933594 208.796875 175.925781 207.570312 175.921875 206.308594 C 175.917969 203.71875 175.925781 201.128906 175.953125 198.539062 C 175.984375 194.585938 175.953125 190.636719 175.914062 186.683594 C 175.917969 184.164062 175.925781 181.644531 175.9375 179.125 C 175.925781 177.949219 175.914062 176.773438 175.902344 175.558594 C 175.921875 174.449219 175.9375 173.339844 175.957031 172.195312 C 175.964844 171.230469 175.96875 170.261719 175.972656 169.265625 C 179.328125 155.945312 190.085938 157.800781 201.515625 157.910156 Z M 201.515625 157.910156 "/>
<path style=" stroke:none;fill-rule:nonzero;fill:rgb(87.450981%,29.803923%,26.666668%);fill-opacity:1;" d="M 123.261719 660.625 C 125.636719 660.835938 128.007812 661.054688 130.378906 661.277344 C 132.363281 661.457031 132.363281 661.457031 134.382812 661.644531 C 146.980469 663.21875 158.441406 670.1875 167.816406 678.441406 C 168.714844 679.21875 169.613281 679.996094 170.535156 680.796875 C 189.191406 698.101562 196 723.71875 202.714844 747.378906 C 211.933594 779.78125 222.855469 811.902344 251.445312 832.421875 C 252.273438 833.046875 253.101562 833.675781 253.953125 834.320312 C 253.953125 834.808594 253.953125 835.296875 253.953125 835.804688 C 238.394531 835.90625 222.839844 835.984375 207.285156 836.035156 C 200.058594 836.058594 192.835938 836.089844 185.613281 836.140625 C 178.640625 836.1875 171.671875 836.214844 164.699219 836.226562 C 162.039062 836.234375 159.382812 836.25 156.722656 836.273438 C 152.996094 836.304688 149.269531 836.3125 145.542969 836.308594 C 144.445312 836.324219 143.347656 836.339844 142.214844 836.355469 C 135.628906 836.316406 131.449219 835.4375 126.234375 831.347656 C 123.074219 826.613281 122.894531 825.46875 122.90625 820.046875 C 122.902344 818.644531 122.898438 817.238281 122.894531 815.789062 C 122.90625 814.25 122.914062 812.710938 122.925781 811.128906 C 122.925781 809.503906 122.925781 807.882812 122.925781 806.210938 C 122.925781 800.835938 122.949219 795.464844 122.972656 790.089844 C 122.980469 786.367188 122.984375 782.648438 122.984375 778.925781 C 122.996094 770.125 123.019531 761.324219 123.050781 752.519531 C 123.085938 741.519531 123.101562 730.515625 123.117188 719.511719 C 123.148438 699.882812 123.199219 680.253906 123.261719 660.625 Z M 123.261719 660.625 "/>
<path style=" stroke:none;fill-rule:nonzero;fill:rgb(87.450981%,29.411766%,26.666668%);fill-opacity:1;" d="M 751.460938 742.277344 C 752.730469 742.695312 754 743.117188 755.3125 743.546875 C 758.886719 746.730469 758.886719 746.730469 759.566406 750 C 759.824219 754.488281 759.835938 758.917969 759.765625 763.414062 C 759.769531 765.066406 759.769531 766.71875 759.769531 768.421875 C 759.757812 771.921875 759.734375 775.425781 759.691406 778.925781 C 759.628906 784.273438 759.628906 789.617188 759.640625 794.964844 C 759.625 798.363281 759.605469 801.765625 759.582031 805.167969 C 759.582031 807.5625 759.582031 807.5625 759.582031 810.003906 C 759.453125 818.148438 759.222656 824.421875 754.429688 831.347656 C 749.660156 834.53125 748.390625 834.695312 742.898438 834.730469 C 741.445312 834.75 739.988281 834.765625 738.488281 834.78125 C 736.894531 834.785156 735.296875 834.789062 733.65625 834.792969 C 731.972656 834.808594 730.292969 834.820312 728.5625 834.835938 C 722.992188 834.882812 717.425781 834.910156 711.855469 834.933594 C 708 834.960938 704.144531 834.988281 700.289062 835.019531 C 691.167969 835.089844 682.046875 835.144531 672.925781 835.195312 C 662.542969 835.25 652.160156 835.324219 641.777344 835.398438 C 620.421875 835.550781 599.0625 835.683594 577.703125 835.804688 C 582.460938 830.945312 587.515625 826.816406 592.925781 822.71875 C 605.460938 813.0625 616.765625 802.183594 628.195312 791.265625 C 651.132812 769.433594 676.28125 748.898438 706.90625 739.308594 C 720.148438 734.894531 738.851562 736.519531 751.460938 742.277344 Z M 751.460938 742.277344 "/>
<path style=" stroke:none;fill-rule:nonzero;fill:rgb(25.098041%,71.764708%,73.725492%);fill-opacity:1;" d="M 573.25 123.21875 C 574.226562 123.21875 575.207031 123.21875 576.21875 123.21875 C 578.386719 125.414062 578.386719 125.414062 580.898438 128.441406 C 586.292969 134.777344 592 140.679688 597.902344 146.546875 C 598.976562 147.621094 600.054688 148.695312 601.160156 149.804688 C 604.683594 153.324219 608.207031 156.835938 611.734375 160.347656 C 614.199219 162.808594 616.664062 165.273438 619.128906 167.734375 C 625.589844 174.1875 632.058594 180.640625 638.527344 187.089844 C 645.109375 193.652344 651.683594 200.21875 658.257812 206.785156 C 668.875 217.386719 679.496094 227.984375 690.121094 238.578125 C 691.050781 239.507812 691.984375 240.4375 692.945312 241.394531 C 693.8125 242.261719 694.679688 243.128906 695.574219 244.019531 C 697.773438 246.214844 699.96875 248.410156 702.167969 250.609375 C 704.433594 252.871094 706.71875 255.117188 709.019531 257.347656 C 710.160156 258.464844 711.300781 259.578125 712.476562 260.722656 C 713.632812 261.847656 714.789062 262.96875 715.980469 264.121094 C 718.789062 267.21875 718.789062 267.21875 720.273438 271.671875 C 706.058594 271.878906 691.84375 272.039062 677.628906 272.132812 C 671.027344 272.179688 664.425781 272.242188 657.824219 272.34375 C 651.4375 272.441406 645.054688 272.496094 638.671875 272.519531 C 636.246094 272.535156 633.824219 272.566406 631.402344 272.613281 C 614.679688 272.9375 600.910156 271.527344 587.769531 259.828125 C 577.183594 248.914062 573.054688 235.851562 573.078125 220.96875 C 573.078125 219.382812 573.078125 219.382812 573.078125 217.761719 C 573.082031 214.277344 573.089844 210.789062 573.101562 207.304688 C 573.105469 204.882812 573.109375 202.460938 573.109375 200.039062 C 573.117188 193.675781 573.128906 187.308594 573.144531 180.945312 C 573.160156 174.445312 573.167969 167.949219 573.175781 161.449219 C 573.191406 148.707031 573.21875 135.960938 573.25 123.21875 Z M 573.25 123.21875 "/>
<path style=" stroke:none;fill-rule:nonzero;fill:rgb(92.941177%,63.137257%,20%);fill-opacity:1;" d="M 758.886719 430.519531 C 758.886719 446.6875 758.886719 462.855469 758.886719 479.511719 C 753.035156 479.386719 747.183594 479.265625 741.15625 479.140625 C 697.726562 478.867188 662.855469 497.207031 629.683594 524.046875 C 627.445312 525.851562 627.445312 525.851562 625.164062 527.695312 C 621.207031 530.914062 617.269531 534.152344 613.347656 537.40625 C 612.359375 538.226562 611.371094 539.046875 610.351562 539.890625 C 608.375 541.53125 606.40625 543.179688 604.433594 544.832031 C 602.964844 544.097656 602.964844 544.097656 601.464844 543.347656 C 606.84375 536.554688 611.910156 531.707031 619.285156 527.015625 C 620.757812 524.8125 620.757812 524.8125 622.257812 522.5625 C 623.726562 523.296875 623.726562 523.296875 625.226562 524.046875 C 625.226562 523.066406 625.226562 522.085938 625.226562 521.078125 C 627.394531 519.269531 627.394531 519.269531 630.238281 517.367188 C 633.367188 515.253906 635.90625 513.371094 638.59375 510.6875 C 640.0625 511.421875 640.0625 511.421875 641.5625 512.171875 C 642.054688 510.699219 642.542969 509.230469 643.046875 507.71875 C 645.234375 505.917969 645.234375 505.917969 648.027344 504.191406 C 649.554688 503.238281 649.554688 503.238281 651.117188 502.265625 C 652.726562 501.289062 652.726562 501.289062 654.371094 500.292969 C 655.410156 499.644531 656.449219 498.992188 657.523438 498.324219 C 663.914062 494.386719 670.269531 491.277344 677.207031 488.417969 C 678.929688 487.4375 680.640625 486.425781 682.308594 485.355469 C 687.871094 482.085938 693.140625 480.691406 699.480469 479.511719 C 700.460938 480 701.441406 480.492188 702.453125 480.996094 C 702.453125 480.015625 702.453125 479.035156 702.453125 478.027344 C 704.105469 477.8125 705.761719 477.597656 707.464844 477.375 C 712.582031 476.863281 712.582031 476.863281 715.816406 475.058594 C 718.308594 475.472656 720.789062 475.960938 723.242188 476.542969 C 723.242188 475.5625 723.242188 474.582031 723.242188 473.574219 C 727.882812 473.53125 732.523438 473.503906 737.167969 473.480469 C 739.148438 473.460938 739.148438 473.460938 741.167969 473.441406 C 742.433594 473.4375 743.695312 473.433594 744.996094 473.425781 C 746.164062 473.417969 747.332031 473.410156 748.53125 473.402344 C 751.460938 473.574219 751.460938 473.574219 754.429688 475.058594 C 753.941406 461.828125 753.449219 448.601562 752.945312 434.972656 C 749.515625 433.996094 746.085938 433.015625 742.550781 432.003906 C 742.550781 431.023438 742.550781 430.046875 742.550781 429.035156 C 730.007812 430.15625 717.765625 432.558594 705.421875 434.972656 C 704.09375 435.222656 702.769531 435.472656 701.402344 435.726562 C 692.304688 437.679688 683.949219 441.066406 675.71875 445.367188 C 673.257812 446.382812 670.785156 447.382812 668.292969 448.335938 C 668.292969 449.316406 668.292969 450.292969 668.292969 451.304688 C 667.214844 451.792969 666.136719 452.28125 665.023438 452.78125 C 654.890625 457.574219 646.171875 463.074219 637.339844 469.953125 C 631.394531 474.542969 625.28125 478.859375 619.128906 483.164062 C 615.039062 486.054688 611.097656 489.019531 607.308594 492.285156 C 603.21875 495.621094 599.371094 497.996094 594.691406 500.386719 C 590.394531 502.585938 586.765625 504.621094 583.0625 507.730469 C 578.429688 511.265625 574.011719 512.945312 568.515625 514.863281 C 566.6875 515.515625 564.859375 516.167969 562.972656 516.839844 C 558.398438 518.109375 558.398438 518.109375 555.425781 516.625 C 556.320312 516.132812 557.214844 515.640625 558.136719 515.136719 C 583.09375 501.378906 606.695312 486.589844 629.683594 469.769531 C 649.226562 455.5 669.582031 442.613281 692.054688 433.488281 C 693.605469 432.847656 695.15625 432.203125 696.753906 431.539062 C 715.582031 424.945312 740.042969 424.242188 758.886719 430.519531 Z M 758.886719 430.519531 "/>
<path style=" stroke:none;fill-rule:nonzero;fill:rgb(18.039216%,36.078432%,47.843137%);fill-opacity:1;" d="M 93.5625 96.496094 C 95.527344 102.421875 95.238281 108.429688 95.207031 114.59375 C 95.207031 115.835938 95.203125 117.078125 95.203125 118.359375 C 95.199219 122.550781 95.183594 126.742188 95.167969 130.933594 C 95.164062 133.957031 95.160156 136.980469 95.152344 140.003906 C 95.140625 148.335938 95.117188 156.667969 95.09375 165 C 95.070312 173.976562 95.050781 182.953125 95.035156 191.925781 C 95.003906 207.484375 94.96875 223.046875 94.929688 238.605469 C 94.886719 254.925781 94.847656 271.246094 94.8125 287.566406 C 94.8125 288.578125 94.808594 289.59375 94.804688 290.640625 C 94.796875 295.789062 94.785156 300.941406 94.773438 306.089844 C 94.695312 342.585938 94.613281 379.082031 94.523438 415.578125 C 94.4375 451.035156 94.355469 486.492188 94.277344 521.949219 C 94.273438 523.042969 94.273438 524.136719 94.269531 525.261719 C 94.246094 536.234375 94.222656 547.207031 94.199219 558.179688 C 94.148438 580.535156 94.097656 602.890625 94.050781 625.242188 C 94.046875 626.269531 94.042969 627.300781 94.042969 628.359375 C 93.890625 697.011719 93.726562 765.664062 93.5625 834.320312 C 93.070312 834.320312 92.582031 834.320312 92.074219 834.320312 C 90.542969 822.289062 90.390625 810.390625 90.421875 798.273438 C 90.421875 796.152344 90.421875 794.03125 90.421875 791.90625 C 90.421875 786.109375 90.429688 780.3125 90.441406 774.515625 C 90.449219 768.25 90.449219 761.984375 90.453125 755.71875 C 90.457031 744.875 90.464844 734.03125 90.480469 723.1875 C 90.5 707.503906 90.507812 691.820312 90.511719 676.136719 C 90.523438 650.683594 90.539062 625.230469 90.5625 599.773438 C 90.5625 598.253906 90.5625 596.730469 90.5625 595.164062 C 90.574219 584.355469 90.582031 573.546875 90.589844 562.738281 C 90.601562 550.375 90.613281 538.011719 90.621094 525.644531 C 90.621094 524.121094 90.625 522.597656 90.625 521.03125 C 90.644531 495.65625 90.660156 470.28125 90.671875 444.910156 C 90.675781 429.257812 90.6875 413.605469 90.707031 397.953125 C 90.71875 387.242188 90.726562 376.53125 90.730469 365.820312 C 90.734375 359.632812 90.738281 353.449219 90.75 347.261719 C 90.757812 341.605469 90.761719 335.953125 90.757812 330.296875 C 90.757812 328.242188 90.761719 326.191406 90.769531 324.140625 C 90.777344 321.363281 90.773438 318.585938 90.769531 315.808594 C 90.769531 314.261719 90.773438 312.714844 90.773438 311.121094 C 90.753906 307.125 90.753906 307.125 89.105469 302.847656 C 89.5625 299.378906 90.0625 295.917969 90.589844 292.457031 C 90.722656 289.050781 90.785156 285.640625 90.789062 282.234375 C 90.792969 279.410156 90.792969 279.410156 90.792969 276.53125 C 90.789062 274.589844 90.78125 272.652344 90.777344 270.652344 C 90.78125 268.695312 90.789062 266.738281 90.792969 264.722656 C 90.792969 262.847656 90.789062 260.96875 90.789062 259.035156 C 90.785156 257.332031 90.785156 255.625 90.785156 253.867188 C 90.621094 250.09375 90.085938 247.074219 89.105469 243.464844 C 89.585938 241.484375 90.085938 239.503906 90.589844 237.527344 C 90.65625 234.003906 90.648438 230.476562 90.589844 226.949219 C 90.425781 217.074219 90.425781 217.074219 92.074219 213.777344 C 91.097656 213.285156 90.117188 212.796875 89.105469 212.292969 C 89.105469 207.34375 89.105469 202.394531 89.105469 197.445312 C 89.089844 196.359375 89.070312 195.273438 89.054688 194.152344 C 89.039062 193.035156 89.027344 191.917969 89.011719 190.765625 C 88.996094 189.648438 88.980469 188.53125 88.960938 187.378906 C 89.105469 184.097656 89.738281 181.308594 90.589844 178.144531 C 90.589844 177.167969 90.589844 176.1875 90.589844 175.175781 C 89.609375 174.6875 88.628906 174.199219 87.621094 173.691406 C 88.601562 172.222656 89.582031 170.753906 90.589844 169.238281 C 90.171875 166.257812 89.683594 163.285156 89.105469 160.332031 C 89.839844 159.597656 89.839844 159.597656 90.589844 158.847656 C 90.363281 157.3125 90.140625 155.777344 89.90625 154.195312 C 89.125 148.601562 89.199219 143.863281 89.664062 138.25 C 89.8125 136.332031 89.960938 134.414062 90.117188 132.4375 C 90.195312 131.429688 90.273438 130.421875 90.359375 129.378906 C 90.601562 126.015625 90.796875 122.652344 90.972656 119.285156 C 91.035156 118.148438 91.09375 117.007812 91.15625 115.835938 C 91.273438 113.617188 91.382812 111.402344 91.492188 109.183594 C 91.738281 104.636719 92.113281 100.84375 93.5625 96.496094 Z M 93.5625 96.496094 "/>
<path style=" stroke:none;fill-rule:nonzero;fill:rgb(30.588236%,83.137256%,81.960785%);fill-opacity:1;" d="M 282.167969 388.953125 C 283.644531 389.777344 285.117188 390.601562 286.636719 391.453125 C 297.828125 398.097656 307.042969 406.667969 316.324219 415.675781 C 317.632812 416.921875 318.9375 418.167969 320.28125 419.449219 C 327.769531 426.734375 334.527344 434.363281 341.054688 442.511719 C 346.878906 449.757812 352.894531 456.832031 358.941406 463.886719 C 360.707031 465.949219 362.460938 468.023438 364.210938 470.097656 C 392.632812 502.9375 430.019531 522.035156 472.261719 529.984375 C 464.515625 534.449219 457.414062 532.199219 449.148438 530.171875 C 431.125 524.273438 412.996094 515.195312 397.886719 503.78125 C 394.945312 501.511719 394.945312 501.511719 390.582031 500.292969 C 388.886719 498.648438 387.199219 496.992188 385.570312 495.285156 C 382.628906 492.347656 379.511719 489.664062 376.378906 486.933594 C 363.636719 475.523438 352.304688 462.800781 341.777344 449.34375 C 337.757812 444.308594 333.601562 439.402344 329.414062 434.511719 C 328.671875 433.636719 327.929688 432.765625 327.164062 431.867188 C 322.761719 426.738281 318.191406 421.894531 313.355469 417.160156 C 311.472656 415.183594 311.472656 415.183594 309.550781 413.167969 C 306.273438 409.726562 306.273438 409.726562 302.960938 408.253906 C 299.988281 406.765625 299.988281 406.765625 296.464844 403.148438 C 292.433594 399.214844 288.773438 397.152344 283.652344 394.890625 C 283.652344 393.910156 283.652344 392.929688 283.652344 391.921875 C 282.230469 391.371094 282.230469 391.371094 280.777344 390.808594 C 277.105469 389.3125 273.519531 387.722656 269.917969 386.078125 C 259.761719 381.558594 250.175781 378.433594 239.101562 377.078125 C 238.121094 376.585938 237.140625 376.097656 236.128906 375.59375 C 233.445312 375.289062 230.75 375.050781 228.054688 374.847656 C 223.414062 374.503906 219.773438 374.101562 215.339844 372.621094 C 212.621094 372.484375 209.894531 372.429688 207.171875 372.4375 C 205.746094 372.433594 204.324219 372.429688 202.855469 372.425781 C 198.832031 372.460938 198.832031 372.460938 194.546875 374.105469 C 191.542969 374.105469 188.539062 374.105469 185.53125 374.050781 C 182.535156 373.996094 182.535156 373.996094 179.234375 375.035156 C 178.40625 375.21875 177.578125 375.402344 176.726562 375.59375 C 175.257812 374.613281 173.785156 373.632812 172.273438 372.621094 C 206.640625 359.855469 251.777344 371.300781 282.167969 388.953125 Z M 282.167969 388.953125 "/>
<path style=" stroke:none;fill-rule:nonzero;fill:rgb(31.764707%,83.92157%,81.960785%);fill-opacity:1;" d="M 573.25 123.21875 C 574.226562 123.21875 575.207031 123.21875 576.21875 123.21875 C 578.386719 125.414062 578.386719 125.414062 580.898438 128.441406 C 586.292969 134.777344 592 140.679688 597.902344 146.546875 C 598.976562 147.621094 600.054688 148.695312 601.160156 149.804688 C 604.683594 153.324219 608.207031 156.835938 611.734375 160.347656 C 614.199219 162.808594 616.664062 165.273438 619.128906 167.734375 C 625.589844 174.1875 632.058594 180.640625 638.527344 187.089844 C 645.109375 193.652344 651.683594 200.21875 658.257812 206.785156 C 668.875 217.386719 679.496094 227.984375 690.121094 238.578125 C 691.050781 239.507812 691.984375 240.4375 692.945312 241.394531 C 693.8125 242.261719 694.679688 243.128906 695.574219 244.019531 C 697.773438 246.214844 699.96875 248.410156 702.167969 250.609375 C 704.433594 252.871094 706.71875 255.117188 709.019531 257.347656 C 710.160156 258.464844 711.300781 259.578125 712.476562 260.722656 C 713.632812 261.847656 714.789062 262.96875 715.980469 264.121094 C 718.789062 267.21875 718.789062 267.21875 720.273438 271.671875 C 684.988281 271.671875 649.703125 271.671875 613.347656 271.671875 C 613.347656 271.183594 613.347656 270.695312 613.347656 270.1875 C 647.160156 270.1875 680.976562 270.1875 715.816406 270.1875 C 710.085938 263.503906 705.667969 258.632812 699.140625 253.234375 C 696.386719 250.777344 694.0625 248.1875 691.679688 245.375 C 686.359375 239.222656 680.75 233.449219 674.984375 227.714844 C 673.925781 226.65625 672.867188 225.597656 671.773438 224.507812 C 668.316406 221.050781 664.851562 217.597656 661.386719 214.148438 C 658.96875 211.734375 656.554688 209.320312 654.136719 206.910156 C 647.8125 200.589844 641.480469 194.273438 635.144531 187.960938 C 627.53125 180.367188 619.925781 172.769531 612.316406 165.171875 C 600.78125 153.65625 589.242188 142.148438 577.703125 130.640625 C 577.214844 164.933594 576.722656 199.226562 576.21875 234.558594 C 573.25 231.589844 573.25 231.589844 572.890625 227.117188 C 572.898438 225.199219 572.90625 223.28125 572.910156 221.304688 C 572.910156 220.246094 572.910156 219.191406 572.910156 218.101562 C 572.910156 214.597656 572.933594 211.097656 572.957031 207.59375 C 572.964844 205.167969 572.96875 202.742188 572.972656 200.316406 C 572.980469 193.929688 573.011719 187.539062 573.042969 181.148438 C 573.074219 174.632812 573.089844 168.113281 573.101562 161.597656 C 573.136719 148.804688 573.1875 136.011719 573.25 123.21875 Z M 573.25 123.21875 "/>
<path style=" stroke:none;fill-rule:nonzero;fill:rgb(30.19608%,81.176472%,80.784315%);fill-opacity:1;" d="M 298.503906 464.664062 C 305.992188 467.992188 311.441406 471.984375 314.839844 479.511719 C 316.316406 481.003906 317.800781 482.488281 319.296875 483.964844 C 324.761719 490.484375 329.078125 496.351562 331.175781 504.746094 C 332.15625 504.746094 333.136719 504.746094 334.148438 504.746094 C 334.636719 507.199219 335.128906 509.648438 335.632812 512.171875 C 336.613281 512.171875 337.59375 512.171875 338.601562 512.171875 C 340.34375 515.320312 342.074219 518.476562 343.800781 521.632812 C 344.542969 522.976562 344.542969 522.976562 345.304688 524.347656 C 349 531.132812 349 531.132812 349 534.4375 C 350.46875 534.929688 351.9375 535.417969 353.453125 535.921875 C 354.496094 538.375 355.488281 540.851562 356.425781 543.347656 C 357.894531 544.082031 357.894531 544.082031 359.394531 544.832031 C 359.394531 546.300781 359.394531 547.769531 359.394531 549.285156 C 360.375 549.285156 361.355469 549.285156 362.363281 549.285156 C 362.363281 550.265625 362.363281 551.246094 362.363281 552.253906 C 363.34375 552.253906 364.324219 552.253906 365.335938 552.253906 C 367.65625 555.738281 369.570312 559.152344 371.183594 563.015625 C 371.703125 563.875 372.222656 564.730469 372.761719 565.613281 C 374.136719 565.902344 374.136719 565.902344 375.542969 566.195312 C 379.558594 567.347656 380.730469 569.019531 383.25 572.296875 C 386.308594 576.253906 387.148438 577.335938 392.066406 578.976562 C 393.167969 580.140625 394.273438 581.300781 395.40625 582.5 C 400.140625 587.019531 403.820312 588.59375 409.886719 590.851562 C 409.886719 591.832031 409.886719 592.8125 409.886719 593.820312 C 411.296875 594.25 412.707031 594.679688 414.15625 595.121094 C 418.796875 596.789062 418.796875 596.789062 421.769531 599.757812 C 397.058594 595.796875 373.085938 571.785156 358.78125 552.378906 C 348.304688 537.601562 338.972656 522.050781 329.796875 506.445312 C 322.328125 493.910156 313.550781 482.757812 303.703125 471.996094 C 298.503906 466.308594 298.503906 466.308594 298.503906 464.664062 Z M 298.503906 464.664062 "/>
<path style=" stroke:none;fill-rule:nonzero;fill:rgb(80.784315%,30.588236%,25.882354%);fill-opacity:1;" d="M 218.308594 798.6875 C 224.039062 800.597656 225.191406 803.058594 228.613281 807.96875 C 234.367188 816.167969 239.519531 823.5 247.640625 829.492188 C 249.765625 831.070312 251.878906 832.671875 253.953125 834.320312 C 253.953125 834.808594 253.953125 835.296875 253.953125 835.804688 C 238.394531 835.90625 222.839844 835.984375 207.285156 836.035156 C 200.058594 836.058594 192.835938 836.089844 185.613281 836.140625 C 178.640625 836.1875 171.671875 836.214844 164.699219 836.226562 C 162.039062 836.234375 159.382812 836.25 156.722656 836.273438 C 152.996094 836.304688 149.269531 836.3125 145.542969 836.308594 C 144.445312 836.324219 143.347656 836.339844 142.214844 836.355469 C 135.664062 836.316406 131.390625 835.488281 126.234375 831.347656 C 125.027344 827.359375 125.027344 827.359375 124.75 823.925781 C 125.746094 825.132812 126.742188 826.339844 127.769531 827.585938 C 133.058594 832.105469 136.605469 832.367188 143.242188 832.191406 C 144.871094 832.195312 144.871094 832.195312 146.535156 832.195312 C 150.113281 832.191406 153.6875 832.132812 157.265625 832.074219 C 159.75 832.0625 162.238281 832.050781 164.722656 832.042969 C 171.253906 832.015625 177.785156 831.941406 184.316406 831.859375 C 190.984375 831.785156 197.65625 831.75 204.324219 831.710938 C 217.402344 831.632812 230.480469 831.507812 243.554688 831.347656 C 242.441406 830.152344 241.324219 828.957031 240.175781 827.722656 C 238.695312 826.125 237.210938 824.523438 235.730469 822.921875 C 234.996094 822.136719 234.265625 821.351562 233.507812 820.542969 C 218.308594 804.085938 218.308594 804.085938 218.308594 798.6875 Z M 218.308594 798.6875 "/>
<path style=" stroke:none;fill-rule:nonzero;fill:rgb(28.627452%,78.039217%,78.431374%);fill-opacity:1;" d="M 573.25 123.21875 C 574.226562 123.21875 575.207031 123.21875 576.21875 123.21875 C 578.050781 125.085938 578.050781 125.085938 580.300781 127.855469 C 588.710938 137.785156 598.15625 146.746094 607.40625 155.878906 C 606.914062 156.859375 606.425781 157.835938 605.921875 158.847656 C 596.609375 149.539062 587.296875 140.230469 577.703125 130.640625 C 577.214844 164.933594 576.722656 199.226562 576.21875 234.558594 C 573.25 231.589844 573.25 231.589844 572.890625 227.117188 C 572.898438 225.199219 572.90625 223.28125 572.910156 221.304688 C 572.910156 220.246094 572.910156 219.191406 572.910156 218.101562 C 572.910156 214.597656 572.933594 211.097656 572.957031 207.59375 C 572.964844 205.167969 572.96875 202.742188 572.972656 200.316406 C 572.980469 193.929688 573.011719 187.539062 573.042969 181.148438 C 573.074219 174.632812 573.089844 168.113281 573.101562 161.597656 C 573.136719 148.804688 573.1875 136.011719 573.25 123.21875 Z M 573.25 123.21875 "/>
<path style=" stroke:none;fill-rule:nonzero;fill:rgb(29.803923%,80.784315%,80.392158%);fill-opacity:1;" d="M 194.175781 416.972656 C 195.722656 416.96875 197.265625 416.960938 198.859375 416.957031 C 200.339844 416.957031 201.816406 416.960938 203.34375 416.960938 C 204.683594 416.964844 206.027344 416.964844 207.40625 416.96875 C 210.882812 417.160156 210.882812 417.160156 215.339844 418.644531 C 216.933594 418.859375 218.523438 419.074219 220.164062 419.292969 C 231.421875 420.980469 241.847656 425.082031 252.46875 429.035156 C 252.46875 430.015625 252.46875 430.996094 252.46875 432.003906 C 253.628906 432.3125 254.792969 432.617188 255.992188 432.933594 C 262.136719 435.261719 267.308594 438.40625 272.859375 441.890625 C 276.285156 444.074219 276.285156 444.074219 280.683594 445.367188 C 281.417969 446.835938 281.417969 446.835938 282.167969 448.335938 C 284.375 449.070312 284.375 449.070312 286.625 449.820312 C 288.09375 452.023438 288.09375 452.023438 289.59375 454.273438 C 290.851562 454.976562 292.105469 455.679688 293.398438 456.40625 C 297.019531 458.726562 297.019531 458.726562 297.988281 461.839844 C 298.160156 462.773438 298.328125 463.703125 298.503906 464.664062 C 296.972656 463.5 295.441406 462.339844 293.863281 461.140625 C 292.769531 460.328125 291.675781 459.515625 290.546875 458.679688 C 287.722656 456.578125 284.925781 454.4375 282.144531 452.277344 C 252.242188 429.492188 219.472656 422.210938 182.480469 420.777344 C 180.917969 420.714844 179.355469 420.648438 177.746094 420.582031 C 173.941406 420.429688 170.136719 420.277344 166.332031 420.128906 C 166.332031 419.636719 166.332031 419.148438 166.332031 418.644531 C 175.632812 416.988281 184.746094 416.9375 194.175781 416.972656 Z M 194.175781 416.972656 "/>
<path style=" stroke:none;fill-rule:nonzero;fill:rgb(91.37255%,62.7451%,20.392157%);fill-opacity:1;" d="M 675.71875 488.417969 C 676.457031 490.621094 676.457031 490.621094 677.207031 492.871094 C 675.765625 493.628906 674.324219 494.386719 672.84375 495.167969 C 651.128906 506.84375 632.203125 521.617188 613.347656 537.40625 C 612.363281 538.222656 611.382812 539.039062 610.371094 539.878906 C 608.386719 541.523438 606.410156 543.175781 604.433594 544.832031 C 603.457031 544.339844 602.476562 543.851562 601.464844 543.347656 C 606.84375 536.554688 611.910156 531.707031 619.285156 527.015625 C 620.265625 525.546875 621.246094 524.078125 622.257812 522.5625 C 623.238281 523.050781 624.21875 523.542969 625.226562 524.046875 C 625.226562 523.066406 625.226562 522.085938 625.226562 521.078125 C 627.394531 519.269531 627.394531 519.269531 630.238281 517.367188 C 633.367188 515.253906 635.90625 513.371094 638.59375 510.6875 C 639.574219 511.175781 640.554688 511.664062 641.5625 512.171875 C 642.054688 510.699219 642.542969 509.230469 643.046875 507.71875 C 645.257812 505.917969 645.257812 505.917969 648.078125 504.191406 C 649.105469 503.554688 650.132812 502.921875 651.191406 502.265625 C 652.269531 501.617188 653.351562 500.964844 654.464844 500.292969 C 655.515625 499.644531 656.570312 498.992188 657.652344 498.324219 C 663.542969 494.710938 669.480469 491.402344 675.71875 488.417969 Z M 675.71875 488.417969 "/>
<path style=" stroke:none;fill-rule:nonzero;fill:rgb(94.117647%,80.784315%,19.607843%);fill-opacity:1;" d="M 347.511719 354.808594 C 353.394531 357.226562 357.617188 361.277344 362.179688 365.570312 C 363.019531 366.351562 363.863281 367.132812 364.730469 367.941406 C 370.113281 372.984375 375.328125 378.167969 380.484375 383.445312 C 400.277344 403.65625 422.09375 418.617188 447.015625 432.003906 C 446.28125 433.472656 446.28125 433.472656 445.53125 434.972656 C 425.28125 424.140625 425.28125 424.140625 415.828125 418.644531 C 415.828125 417.664062 415.828125 416.683594 415.828125 415.675781 C 414.796875 415.34375 413.765625 415.007812 412.699219 414.664062 C 407.414062 412.253906 403.367188 408.878906 399.027344 405.097656 C 398.179688 404.367188 397.332031 403.640625 396.457031 402.890625 C 389.730469 397.054688 383.390625 390.914062 377.214844 384.5 C 371.570312 378.769531 365.761719 373.253906 359.859375 367.796875 C 358.996094 366.996094 358.132812 366.191406 357.246094 365.363281 C 352.730469 361.082031 352.730469 361.082031 347.511719 357.777344 C 347.511719 356.796875 347.511719 355.816406 347.511719 354.808594 Z M 347.511719 354.808594 "/>
<path style=" stroke:none;fill-rule:nonzero;fill:rgb(88.627452%,58.039218%,21.568628%);fill-opacity:1;" d="M 747.003906 429.035156 C 750.46875 428.972656 753.9375 428.976562 757.402344 429.035156 C 758.886719 430.519531 758.886719 430.519531 759.054688 435.1875 C 759.054688 437.25 759.046875 439.316406 759.03125 441.382812 C 759.027344 442.46875 759.027344 443.550781 759.023438 444.671875 C 759.015625 448.148438 758.996094 451.628906 758.980469 455.109375 C 758.972656 457.460938 758.964844 459.816406 758.957031 462.167969 C 758.941406 467.949219 758.917969 473.730469 758.886719 479.511719 C 755.945312 479.019531 753.003906 478.53125 749.976562 478.027344 C 750.957031 477.046875 751.933594 476.066406 752.945312 475.058594 C 753.671875 468.464844 753.496094 461.828125 753.503906 455.199219 C 753.539062 453.351562 753.574219 451.503906 753.613281 449.597656 C 753.617188 447.824219 753.625 446.046875 753.628906 444.21875 C 753.640625 442.589844 753.65625 440.960938 753.667969 439.28125 C 752.792969 434.058594 751.039062 432.332031 747.003906 429.035156 Z M 747.003906 429.035156 "/>
<path style=" stroke:none;fill-rule:nonzero;fill:rgb(90.196079%,34.509805%,22.745098%);fill-opacity:1;" d="M 749.976562 654.6875 C 752.449219 654.625 754.925781 654.628906 757.402344 654.6875 C 758.886719 656.171875 758.886719 656.171875 759.0625 658.886719 C 759.058594 660.664062 759.058594 660.664062 759.054688 662.472656 C 759.054688 663.8125 759.054688 665.148438 759.054688 666.527344 C 759.046875 667.980469 759.039062 669.433594 759.03125 670.929688 C 759.027344 672.410156 759.027344 673.890625 759.023438 675.417969 C 759.015625 680.167969 758.996094 684.917969 758.980469 689.667969 C 758.972656 692.878906 758.964844 696.089844 758.957031 699.300781 C 758.941406 707.195312 758.917969 715.085938 758.886719 722.976562 C 753.003906 721.507812 747.125 720.039062 741.066406 718.523438 C 741.066406 718.035156 741.066406 717.542969 741.066406 717.039062 C 752.574219 718.339844 752.574219 718.339844 755.914062 720.007812 C 755.8125 711.183594 755.683594 702.355469 755.527344 693.53125 C 755.476562 690.527344 755.433594 687.523438 755.402344 684.519531 C 755.351562 680.207031 755.273438 675.898438 755.191406 671.585938 C 755.179688 670.238281 755.171875 668.890625 755.160156 667.5 C 755.132812 666.25 755.101562 665.003906 755.074219 663.71875 C 755.054688 662.617188 755.039062 661.515625 755.023438 660.382812 C 754.628906 657.042969 754.628906 657.042969 749.976562 654.6875 Z M 749.976562 654.6875 "/>
<path style=" stroke:none;fill-rule:nonzero;fill:rgb(5.490196%,21.176471%,43.921569%);fill-opacity:1;" d="M 139.597656 513.65625 C 133.863281 517.097656 130.65625 517.054688 123.261719 518.109375 C 123.261719 534.765625 123.261719 551.421875 123.261719 568.582031 C 128.164062 568.582031 133.066406 568.582031 138.113281 568.582031 C 138.113281 569.074219 138.113281 569.5625 138.113281 570.066406 C 135.421875 570.355469 132.730469 570.632812 130.039062 570.902344 C 127.789062 571.136719 127.789062 571.136719 125.496094 571.375 C 124.269531 571.433594 123.042969 571.492188 121.777344 571.554688 C 118.816406 568.589844 120.015625 562.71875 119.992188 558.660156 C 119.984375 557.515625 119.972656 556.375 119.964844 555.195312 C 119.953125 552.769531 119.941406 550.34375 119.9375 547.921875 C 119.921875 544.203125 119.875 540.484375 119.828125 536.765625 C 119.820312 534.414062 119.8125 532.0625 119.804688 529.710938 C 119.789062 528.597656 119.769531 527.480469 119.75 526.328125 C 119.765625 523.191406 119.765625 523.191406 120.292969 518.109375 C 126.644531 513.875 132.074219 513.441406 139.597656 513.65625 Z M 139.597656 513.65625 "/>
<path style=" stroke:none;fill-rule:nonzero;fill:rgb(89.803922%,67.843139%,25.882354%);fill-opacity:1;" d="M 602.949219 488.417969 C 604.421875 489.398438 605.890625 490.378906 607.40625 491.386719 C 603.765625 495.503906 599.828125 497.691406 594.96875 500.203125 C 590.589844 502.460938 586.828125 504.570312 583.046875 507.742188 C 578.421875 511.273438 574 512.949219 568.515625 514.863281 C 566.6875 515.515625 564.859375 516.167969 562.972656 516.839844 C 558.398438 518.109375 558.398438 518.109375 555.425781 516.625 C 556.875 515.816406 556.875 515.816406 558.351562 514.992188 C 562.792969 512.511719 567.230469 510.023438 571.671875 507.53125 C 573.1875 506.6875 574.703125 505.839844 576.269531 504.96875 C 585.433594 499.816406 594.304688 494.410156 602.949219 488.417969 Z M 602.949219 488.417969 "/>
<path style=" stroke:none;fill-rule:nonzero;fill:rgb(31.37255%,83.529413%,82.352942%);fill-opacity:1;" d="M 423.253906 599.757812 C 431.144531 600.429688 438.492188 601.632812 446.179688 603.5625 C 454.546875 605.589844 462.199219 606.21875 470.777344 605.699219 C 470.777344 605.207031 470.777344 604.71875 470.777344 604.214844 C 479.597656 604.214844 488.417969 604.214844 497.507812 604.214844 C 483.261719 613.707031 455.960938 610.101562 439.746094 607.289062 C 427.273438 604.792969 427.273438 604.792969 423.253906 599.757812 Z M 423.253906 599.757812 "/>
<path style=" stroke:none;fill-rule:nonzero;fill:rgb(94.117647%,37.64706%,21.176471%);fill-opacity:1;" d="M 265.832031 725.945312 C 270.027344 729.929688 273.324219 733.929688 276.507812 738.75 C 290.058594 758.402344 307.050781 772.21875 326.722656 785.328125 C 325.988281 786.796875 325.988281 786.796875 325.238281 788.296875 C 323.910156 787.367188 322.585938 786.4375 321.222656 785.480469 C 319.464844 784.253906 317.710938 783.027344 315.953125 781.800781 C 314.648438 780.882812 314.648438 780.882812 313.316406 779.945312 C 309.832031 777.523438 306.453125 775.1875 302.625 773.34375 C 299.382812 771.652344 297.675781 769.675781 295.347656 766.863281 C 289.785156 760.265625 283.949219 753.953125 278.0625 747.640625 C 274.972656 744.03125 272.710938 740.402344 270.289062 736.339844 C 269.308594 735.847656 268.328125 735.359375 267.316406 734.855469 C 266.390625 730.308594 266.390625 730.308594 265.832031 725.945312 Z M 265.832031 725.945312 "/>
<path style=" stroke:none;fill-rule:nonzero;fill:rgb(32.156864%,81.568629%,78.823531%);fill-opacity:1;" d="M 558.398438 578.976562 C 518.371094 605.351562 518.371094 605.351562 498.992188 604.214844 C 503.234375 601.386719 505.558594 600.558594 510.410156 599.574219 C 511.609375 599.324219 512.8125 599.078125 514.046875 598.820312 C 514.960938 598.640625 515.875 598.460938 516.816406 598.273438 C 516.816406 597.296875 516.816406 596.316406 516.816406 595.304688 C 519.265625 595.304688 521.714844 595.304688 524.238281 595.304688 C 524.238281 594.324219 524.238281 593.347656 524.238281 592.335938 C 529.386719 591.601562 529.386719 591.601562 534.636719 590.851562 C 534.636719 589.871094 534.636719 588.890625 534.636719 587.882812 C 536.058594 587.238281 536.058594 587.238281 537.511719 586.582031 C 540.800781 585.167969 540.800781 585.167969 542.0625 581.945312 C 545.027344 580.628906 545.027344 580.628906 548.652344 579.441406 C 549.84375 579.035156 551.035156 578.632812 552.265625 578.214844 C 555.425781 577.492188 555.425781 577.492188 558.398438 578.976562 Z M 558.398438 578.976562 "/>
<path style=" stroke:none;fill-rule:nonzero;fill:rgb(29.803923%,77.64706%,78.039217%);fill-opacity:1;" d="M 736.609375 302.847656 C 750.144531 301.917969 750.144531 301.917969 755.265625 305.539062 C 758.742188 310.824219 759.066406 314.976562 759.03125 321.144531 C 759.027344 322.671875 759.019531 324.195312 759.015625 325.769531 C 759.003906 327.359375 758.992188 328.953125 758.980469 330.589844 C 758.972656 332.199219 758.964844 333.808594 758.957031 335.464844 C 758.941406 339.4375 758.917969 343.410156 758.886719 347.386719 C 755.945312 346.894531 753.003906 346.40625 749.976562 345.902344 C 751.933594 345.410156 753.894531 344.921875 755.914062 344.417969 C 755.839844 339.09375 755.699219 333.777344 755.542969 328.457031 C 755.523438 326.949219 755.503906 325.441406 755.480469 323.886719 C 755.320312 315.355469 755.320312 315.355469 751.785156 307.8125 C 748.34375 305.730469 746.167969 304.96875 742.179688 304.703125 C 740.339844 304.582031 738.503906 304.460938 736.609375 304.332031 C 736.609375 303.84375 736.609375 303.355469 736.609375 302.847656 Z M 736.609375 302.847656 "/>
<path style=" stroke:none;fill-rule:nonzero;fill:rgb(2.352941%,12.941177%,45.490196%);fill-opacity:1;" d="M 200.703125 300.058594 C 201.847656 300.09375 202.988281 300.128906 204.167969 300.164062 C 207.800781 300.277344 211.429688 300.402344 215.0625 300.527344 C 217.53125 300.609375 220 300.6875 222.472656 300.765625 C 228.511719 300.957031 234.546875 301.15625 240.585938 301.363281 C 240.585938 301.855469 240.585938 302.34375 240.585938 302.847656 C 239.398438 302.871094 238.214844 302.890625 236.992188 302.914062 C 212.652344 303.410156 188.882812 304.570312 164.847656 308.785156 C 168.40625 305.226562 169.796875 305.308594 174.683594 304.890625 C 175.898438 304.777344 177.113281 304.667969 178.363281 304.554688 C 179.292969 304.480469 180.222656 304.410156 181.183594 304.332031 C 181.183594 303.355469 181.183594 302.375 181.183594 301.363281 C 187.726562 299.695312 194.011719 299.816406 200.703125 300.058594 Z M 200.703125 300.058594 "/>
<path style=" stroke:none;fill-rule:nonzero;fill:rgb(90.980393%,32.549021%,22.745098%);fill-opacity:1;" d="M 218.308594 798.6875 C 224.039062 800.597656 225.191406 803.058594 228.613281 807.96875 C 234.367188 816.167969 239.566406 823.535156 247.640625 829.585938 C 249.421875 830.933594 249.421875 830.933594 251.238281 832.304688 C 252.132812 832.96875 253.027344 833.632812 253.953125 834.320312 C 248.785156 836.039062 245.84375 835.371094 240.585938 834.320312 C 241.566406 833.339844 242.546875 832.359375 243.554688 831.347656 C 242.480469 830.21875 241.40625 829.085938 240.296875 827.921875 C 218.308594 804.546875 218.308594 804.546875 218.308594 798.6875 Z M 218.308594 798.6875 "/>
<path style=" stroke:none;fill-rule:nonzero;fill:rgb(31.37255%,83.92157%,82.352942%);fill-opacity:1;" d="M 252.46875 432.003906 C 260.132812 434.019531 266.214844 437.71875 272.859375 441.890625 C 276.285156 444.074219 276.285156 444.074219 280.683594 445.367188 C 281.175781 446.34375 281.664062 447.324219 282.167969 448.335938 C 283.640625 448.824219 285.109375 449.316406 286.625 449.820312 C 288.09375 452.023438 288.09375 452.023438 289.59375 454.273438 C 290.851562 454.976562 292.105469 455.679688 293.398438 456.40625 C 297.019531 458.726562 297.019531 458.726562 297.988281 461.839844 C 298.246094 463.238281 298.246094 463.238281 298.503906 464.664062 C 296.972656 463.5 295.441406 462.339844 293.863281 461.140625 C 273.960938 446.082031 273.960938 446.082031 252.46875 433.488281 C 252.46875 433 252.46875 432.507812 252.46875 432.003906 Z M 252.46875 432.003906 "/>
<path style=" stroke:none;fill-rule:nonzero;fill:rgb(29.803923%,80.392158%,80.392158%);fill-opacity:1;" d="M 170.785156 374.105469 C 167.863281 378.0625 166.398438 378.550781 161.410156 379.304688 C 159.605469 379.546875 157.796875 379.792969 155.933594 380.046875 C 154.527344 380.75 153.117188 381.453125 151.664062 382.179688 C 145.804688 385.109375 140.042969 386.191406 133.660156 387.46875 C 131.675781 387.953125 129.695312 388.441406 127.71875 388.953125 C 130.898438 385.40625 133.476562 383.691406 137.976562 382.167969 C 139.078125 381.789062 140.183594 381.40625 141.324219 381.015625 C 142.46875 380.632812 143.617188 380.253906 144.796875 379.859375 C 146.515625 379.273438 146.515625 379.273438 148.273438 378.671875 C 151.316406 377.632812 154.367188 376.605469 157.421875 375.59375 C 162.167969 374.011719 165.824219 373.996094 170.785156 374.105469 Z M 170.785156 374.105469 "/>
<path style=" stroke:none;fill-rule:nonzero;fill:rgb(67.450982%,72.549021%,47.450981%);fill-opacity:1;" d="M 599.980469 541.863281 C 600.960938 542.351562 601.941406 542.839844 602.949219 543.347656 C 601.285156 548.34375 600.238281 549.117188 596.121094 552.132812 C 595.054688 552.921875 593.988281 553.710938 592.886719 554.523438 C 591.765625 555.335938 590.644531 556.148438 589.492188 556.984375 C 588.363281 557.816406 587.238281 558.644531 586.078125 559.5 C 583.292969 561.546875 580.5 563.585938 577.703125 565.613281 C 576.722656 565.125 575.742188 564.636719 574.734375 564.128906 C 576.21875 561.160156 576.21875 561.160156 580.675781 559.675781 C 581.777344 558.160156 581.777344 558.160156 582.902344 556.613281 C 583.636719 555.664062 584.371094 554.714844 585.128906 553.738281 C 586.597656 553.738281 588.070312 553.738281 589.585938 553.738281 C 589.921875 552.605469 590.257812 551.472656 590.605469 550.304688 C 592.96875 545.464844 595.121094 544.046875 599.980469 541.863281 Z M 599.980469 541.863281 "/>
<path style=" stroke:none;fill-rule:nonzero;fill:rgb(7.450981%,20.784314%,44.705883%);fill-opacity:1;" d="M 227.21875 527.015625 C 242.792969 531.878906 257.128906 546.351562 265.832031 559.675781 C 265.34375 560.65625 264.851562 561.636719 264.347656 562.644531 C 263.304688 561.480469 262.265625 560.316406 261.191406 559.113281 C 250.742188 547.511719 240.375 537.046875 227.21875 528.5 C 227.21875 528.011719 227.21875 527.519531 227.21875 527.015625 Z M 227.21875 527.015625 "/>
<path style=" stroke:none;fill-rule:nonzero;fill:rgb(91.37255%,77.64706%,21.176471%);fill-opacity:1;" d="M 347.511719 354.808594 C 353.640625 357.277344 358.007812 361.664062 362.734375 366.128906 C 363.585938 366.921875 364.433594 367.714844 365.308594 368.53125 C 371.894531 374.703125 378.34375 381.003906 384.640625 387.46875 C 378.585938 387.46875 377.234375 385.597656 372.761719 381.53125 C 371.164062 379.6875 369.589844 377.832031 368.027344 375.964844 C 362.804688 369.792969 356.851562 365.078125 350.394531 360.246094 C 349.445312 359.433594 348.492188 358.617188 347.511719 357.777344 C 347.511719 356.796875 347.511719 355.816406 347.511719 354.808594 Z M 347.511719 354.808594 "/>
<path style=" stroke:none;fill-rule:nonzero;fill:rgb(94.901961%,66.274512%,18.431373%);fill-opacity:1;" d="M 708.390625 430.519531 C 706.921875 431.253906 706.921875 431.253906 705.421875 432.003906 C 705.421875 432.984375 705.421875 433.964844 705.421875 434.972656 C 704.472656 435.128906 703.523438 435.28125 702.542969 435.4375 C 694.515625 437.238281 686.929688 439.71875 679.617188 443.511719 C 675.71875 445.367188 675.71875 445.367188 671.265625 443.882812 C 674.539062 442.203125 677.820312 440.535156 681.105469 438.871094 C 682.019531 438.398438 682.9375 437.929688 683.882812 437.445312 C 691.871094 433.410156 699.246094 429.984375 708.390625 430.519531 Z M 708.390625 430.519531 "/>
<path style=" stroke:none;fill-rule:nonzero;fill:rgb(87.058824%,68.235296%,28.235295%);fill-opacity:1;" d="M 620.773438 522.5625 C 622.730469 523.542969 624.691406 524.523438 626.710938 525.53125 C 624.117188 527.917969 621.515625 530.296875 618.914062 532.675781 C 618.1875 533.347656 617.457031 534.019531 616.703125 534.707031 C 612.757812 538.3125 608.78125 541.71875 604.433594 544.832031 C 603.457031 544.339844 602.476562 543.851562 601.464844 543.347656 C 605.640625 538.078125 609.53125 533.183594 615.296875 529.613281 C 619.691406 527.34375 619.691406 527.34375 620.773438 522.5625 Z M 620.773438 522.5625 "/>
<path style=" stroke:none;fill-rule:nonzero;fill:rgb(30.19608%,82.352942%,81.176472%);fill-opacity:1;" d="M 439.589844 522.5625 C 442.925781 522.90625 442.925781 522.90625 447.027344 523.894531 C 448.492188 524.242188 449.957031 524.585938 451.464844 524.941406 C 452.996094 525.320312 454.53125 525.699219 456.109375 526.089844 C 458.429688 526.640625 458.429688 526.640625 460.792969 527.203125 C 464.621094 528.113281 468.441406 529.042969 472.261719 529.984375 C 464.453125 534.484375 457.273438 532.191406 448.964844 530.078125 C 444.753906 528.726562 440.6875 527.257812 436.621094 525.53125 C 437.597656 524.550781 438.578125 523.570312 439.589844 522.5625 Z M 439.589844 522.5625 "/>
<path style=" stroke:none;fill-rule:nonzero;fill:rgb(64.313728%,76.078433%,53.725493%);fill-opacity:1;" d="M 561.367188 516.625 C 558.914062 520.765625 557.640625 522.347656 552.945312 523.738281 C 551.4375 523.933594 549.925781 524.125 548.371094 524.324219 C 546.796875 524.542969 545.21875 524.757812 543.59375 524.980469 C 542.105469 525.164062 540.621094 525.34375 539.089844 525.53125 C 536.988281 525.835938 534.882812 526.144531 532.78125 526.460938 C 531.433594 526.644531 530.082031 526.828125 528.695312 527.015625 C 532.621094 523.09375 536.472656 522.03125 541.691406 520.148438 C 543.488281 519.488281 545.289062 518.824219 547.144531 518.144531 C 552.207031 516.695312 556.140625 516.320312 561.367188 516.625 Z M 561.367188 516.625 "/>
<path style=" stroke:none;fill-rule:nonzero;fill:rgb(23.921569%,67.843139%,70.588237%);fill-opacity:1;" d="M 194.546875 369.652344 C 196.019531 370.632812 197.488281 371.613281 199.003906 372.621094 C 194.304688 374.1875 190.445312 374.140625 185.53125 374.050781 C 182.535156 373.996094 182.535156 373.996094 179.234375 375.035156 C 178.40625 375.21875 177.578125 375.402344 176.726562 375.59375 C 175.257812 374.613281 173.785156 373.632812 172.273438 372.621094 C 180.046875 370.03125 186.335938 369.105469 194.546875 369.652344 Z M 194.546875 369.652344 "/>
<path style=" stroke:none;fill-rule:nonzero;fill:rgb(2.745098%,16.470589%,33.333334%);fill-opacity:1;" d="M 402.460938 592.335938 C 409.261719 594.492188 415.792969 597.097656 422.324219 599.945312 C 423.277344 600.355469 424.226562 600.769531 425.207031 601.191406 C 427.527344 602.195312 429.847656 603.203125 432.164062 604.214844 C 427.140625 605.660156 423.898438 605.488281 418.796875 604.214844 C 418.796875 603.234375 418.796875 602.253906 418.796875 601.242188 C 417.757812 601.121094 416.714844 601 415.640625 600.871094 C 410.378906 599.5 406.804688 597.050781 402.460938 593.820312 C 402.460938 593.332031 402.460938 592.839844 402.460938 592.335938 Z M 402.460938 592.335938 "/>
<path style=" stroke:none;fill-rule:nonzero;fill:rgb(12.941177%,28.235295%,40.000001%);fill-opacity:1;" d="M 718.789062 360.746094 C 728.589844 360.746094 738.390625 360.746094 748.488281 360.746094 C 748.488281 361.234375 748.488281 361.726562 748.488281 362.230469 C 745.550781 362.722656 742.609375 363.210938 739.578125 363.714844 C 739.578125 364.207031 739.578125 364.695312 739.578125 365.199219 C 733.699219 365.199219 727.816406 365.199219 721.757812 365.199219 C 721.757812 364.21875 721.757812 363.242188 721.757812 362.230469 C 720.777344 361.742188 719.796875 361.25 718.789062 360.746094 Z M 718.789062 360.746094 "/>
<path style=" stroke:none;fill-rule:nonzero;fill:rgb(93.725491%,53.725493%,19.215687%);fill-opacity:1;" d="M 175.242188 513.65625 C 192.351562 513.109375 192.351562 513.109375 200.488281 516.625 C 200.488281 517.113281 200.488281 517.605469 200.488281 518.109375 C 183.378906 518.65625 183.378906 518.65625 175.242188 515.140625 C 175.242188 514.648438 175.242188 514.160156 175.242188 513.65625 Z M 175.242188 513.65625 "/>
<path style=" stroke:none;fill-rule:nonzero;fill:rgb(28.235295%,77.64706%,78.039217%);fill-opacity:1;" d="M 423.253906 599.757812 C 431.523438 600.472656 439.101562 601.6875 447.015625 604.214844 C 446.035156 605.191406 445.054688 606.171875 444.042969 607.183594 C 440.335938 606.980469 440.335938 606.980469 435.96875 606.160156 C 434.53125 605.910156 433.09375 605.660156 431.613281 605.402344 C 427.554688 604.164062 425.890625 603.003906 423.253906 599.757812 Z M 423.253906 599.757812 "/>
<path style=" stroke:none;fill-rule:nonzero;fill:rgb(85.09804%,78.431374%,41.176471%);fill-opacity:1;" d="M 574.734375 506.234375 C 575.714844 506.722656 576.695312 507.210938 577.703125 507.71875 C 575.910156 508.3125 575.910156 508.3125 574.082031 508.921875 C 572.828125 509.503906 571.570312 510.085938 570.277344 510.6875 C 569.789062 512.15625 569.296875 513.625 568.792969 515.140625 C 565.722656 516.222656 565.722656 516.222656 562.015625 516.902344 C 560.789062 517.136719 559.5625 517.375 558.296875 517.617188 C 556.878906 517.859375 556.878906 517.859375 555.425781 518.109375 C 558.964844 514.136719 562.660156 511.945312 567.402344 509.574219 C 568.703125 508.90625 570.007812 508.242188 571.351562 507.554688 C 572.46875 507.117188 573.582031 506.683594 574.734375 506.234375 Z M 574.734375 506.234375 "/>
<path style=" stroke:none;fill-rule:nonzero;fill:rgb(93.725491%,47.843137%,19.607843%);fill-opacity:1;" d="M 580.675781 666.5625 C 581.652344 667.054688 582.632812 667.542969 583.644531 668.046875 C 572.953125 679.035156 572.953125 679.035156 565.824219 681.410156 C 567.941406 676.285156 570.421875 673.835938 574.917969 670.648438 C 575.996094 669.875 577.070312 669.101562 578.179688 668.304688 C 579.003906 667.730469 579.824219 667.15625 580.675781 666.5625 Z M 580.675781 666.5625 "/>
<path style=" stroke:none;fill-rule:nonzero;fill:rgb(3.921569%,19.215687%,45.09804%);fill-opacity:1;" d="M 663.839844 573.039062 C 664.820312 573.527344 665.800781 574.015625 666.808594 574.523438 C 653.109375 585.90625 653.109375 585.90625 644.53125 587.882812 C 650.128906 581.765625 656.25 576.554688 663.839844 573.039062 Z M 663.839844 573.039062 "/>
<path style=" stroke:none;fill-rule:nonzero;fill:rgb(94.117647%,35.294119%,20.784314%);fill-opacity:1;" d="M 579.1875 749.699219 C 580.167969 750.1875 581.148438 750.679688 582.160156 751.183594 C 581.238281 751.550781 580.320312 751.917969 579.375 752.296875 C 575.996094 753.867188 575.996094 753.867188 574.917969 757.121094 C 573.25 760.089844 573.25 760.089844 568.605469 761.945312 C 567.199219 762.3125 565.789062 762.679688 564.335938 763.058594 C 569.042969 758.21875 573.839844 753.824219 579.1875 749.699219 Z M 579.1875 749.699219 "/>
<path style=" stroke:none;fill-rule:nonzero;fill:rgb(11.764706%,32.156864%,43.529412%);fill-opacity:1;" d="M 720.273438 225.652344 C 721.980469 227.070312 723.679688 228.492188 725.378906 229.921875 C 726.324219 230.710938 727.273438 231.503906 728.25 232.320312 C 730.667969 234.558594 730.667969 234.558594 732.152344 237.527344 C 730.195312 237.527344 728.234375 237.527344 726.214844 237.527344 C 726.214844 236.546875 726.214844 235.570312 726.214844 234.558594 C 725.234375 234.558594 724.253906 234.558594 723.242188 234.558594 C 723.242188 233.578125 723.242188 232.601562 723.242188 231.589844 C 722.261719 231.589844 721.28125 231.589844 720.273438 231.589844 C 720.273438 229.628906 720.273438 227.671875 720.273438 225.652344 Z M 720.273438 225.652344 "/>
<path style=" stroke:none;fill-rule:nonzero;fill:rgb(94.509804%,64.705884%,18.431373%);fill-opacity:1;" d="M 686.117188 482.480469 C 688.605469 482.90625 691.082031 483.398438 693.542969 483.964844 C 688.546875 488.359375 683.605469 489.789062 677.207031 491.386719 C 680.175781 488.417969 683.144531 485.449219 686.117188 482.480469 Z M 686.117188 482.480469 "/>
<path style=" stroke:none;fill-rule:nonzero;fill:rgb(19.215687%,36.862746%,49.411765%);fill-opacity:1;" d="M 95.046875 838.773438 C 95.535156 839.753906 96.027344 840.730469 96.53125 841.742188 C 98 842.230469 99.472656 842.722656 100.988281 843.226562 C 101.476562 847.144531 101.96875 851.066406 102.472656 855.101562 C 101 854.613281 99.53125 854.121094 98.015625 853.617188 C 97.695312 851.597656 97.695312 851.597656 97.367188 849.535156 C 96.734375 845.875 96.011719 842.351562 95.046875 838.773438 Z M 95.046875 838.773438 "/>
<path style=" stroke:none;fill-rule:nonzero;fill:rgb(94.117647%,33.333334%,22.745098%);fill-opacity:1;" d="M 464.835938 809.082031 C 463.089844 811.335938 463.089844 811.335938 460.378906 813.535156 C 456.695312 813.644531 456.695312 813.644531 452.675781 813.070312 C 450.667969 812.804688 450.667969 812.804688 448.621094 812.53125 C 447.089844 812.292969 447.089844 812.292969 445.53125 812.050781 C 445.53125 811.558594 445.53125 811.070312 445.53125 810.566406 C 452.054688 809.292969 458.191406 808.949219 464.835938 809.082031 Z M 464.835938 809.082031 "/>
<path style=" stroke:none;fill-rule:nonzero;fill:rgb(77.254903%,64.313728%,34.509805%);fill-opacity:1;" d="M 583.085938 503.078125 C 584.25 503.140625 585.414062 503.199219 586.613281 503.261719 C 581.429688 509.207031 578.222656 511.617188 570.277344 512.171875 C 579.1875 503.261719 579.1875 503.261719 583.085938 503.078125 Z M 583.085938 503.078125 "/>
<path style=" stroke:none;fill-rule:nonzero;fill:rgb(27.843139%,77.254903%,77.254903%);fill-opacity:1;" d="M 439.589844 522.5625 C 442.476562 522.921875 442.476562 522.921875 445.714844 523.863281 C 446.792969 524.164062 447.867188 524.464844 448.976562 524.777344 C 449.800781 525.027344 450.621094 525.273438 451.46875 525.53125 C 451.46875 527 451.46875 528.472656 451.46875 529.984375 C 446.570312 528.515625 441.667969 527.046875 436.621094 525.53125 C 437.597656 524.550781 438.578125 523.570312 439.589844 522.5625 Z M 439.589844 522.5625 "/>
<path style=" stroke:none;fill-rule:nonzero;fill:rgb(4.705882%,14.509805%,43.921569%);fill-opacity:1;" d="M 646.019531 434.972656 C 646.507812 435.953125 647 436.933594 647.503906 437.941406 C 645.710938 438.539062 645.710938 438.539062 643.882812 439.148438 C 642.628906 439.730469 641.371094 440.3125 640.078125 440.914062 C 639.585938 442.382812 639.097656 443.851562 638.59375 445.367188 C 636.140625 445.855469 633.691406 446.34375 631.167969 446.851562 C 635.785156 441.96875 640.101562 438.183594 646.019531 434.972656 Z M 646.019531 434.972656 "/>
<path style=" stroke:none;fill-rule:nonzero;fill:rgb(30.19608%,81.568629%,81.176472%);fill-opacity:1;" d="M 183.59375 371.046875 C 185.828125 371.066406 185.828125 371.066406 188.109375 371.085938 C 189.253906 371.101562 190.398438 371.121094 191.578125 371.136719 C 191.578125 371.628906 191.578125 372.117188 191.578125 372.621094 C 189.199219 373.203125 186.816406 373.753906 184.429688 374.292969 C 183.105469 374.601562 181.777344 374.914062 180.410156 375.230469 C 176.726562 375.59375 176.726562 375.59375 172.273438 372.621094 C 176.199219 370.660156 179.21875 370.996094 183.59375 371.046875 Z M 183.59375 371.046875 "/>
<path style=" stroke:none;fill-rule:nonzero;fill:rgb(32.156864%,85.882354%,83.92157%);fill-opacity:1;" d="M 311.871094 412.707031 C 313.550781 414.054688 315.21875 415.417969 316.882812 416.789062 C 317.8125 417.546875 318.742188 418.304688 319.703125 419.085938 C 322.390625 421.734375 323.753906 424.105469 325.238281 427.550781 C 313.851562 420.398438 313.851562 420.398438 311.871094 412.707031 Z M 311.871094 412.707031 "/>
<path style=" stroke:none;fill-rule:nonzero;fill:rgb(2.352941%,17.647059%,34.901962%);fill-opacity:1;" d="M 638.59375 377.078125 C 639.082031 378.054688 639.574219 379.035156 640.078125 380.046875 C 637.480469 383.105469 637.480469 383.105469 634.136719 385.984375 C 632.175781 385.492188 630.214844 385.003906 628.195312 384.5 C 631.628906 382.050781 635.058594 379.601562 638.59375 377.078125 Z M 638.59375 377.078125 "/>
<path style=" stroke:none;fill-rule:nonzero;fill:rgb(11.764706%,29.019609%,41.176471%);fill-opacity:1;" d="M 772.25 858.070312 C 762.226562 864.007812 762.226562 864.007812 758.886719 864.007812 C 760.371094 859.554688 760.371094 859.554688 763.0625 857.699219 C 766.816406 856.414062 768.570312 856.757812 772.25 858.070312 Z M 772.25 858.070312 "/>
<path style=" stroke:none;fill-rule:nonzero;fill:rgb(83.92157%,40.784314%,24.705882%);fill-opacity:1;" d="M 405.433594 786.8125 C 408.320312 786.378906 408.320312 786.378906 411.558594 786.535156 C 413.457031 786.625 415.355469 786.71875 417.3125 786.8125 C 415.734375 789.039062 415.734375 789.039062 412.859375 791.265625 C 407.382812 791.546875 407.382812 791.546875 402.460938 791.265625 C 403.441406 789.796875 404.421875 788.328125 405.433594 786.8125 Z M 405.433594 786.8125 "/>
<path style=" stroke:none;fill-rule:nonzero;fill:rgb(10.980392%,30.19608%,41.960785%);fill-opacity:1;" d="M 108.414062 75.710938 C 109.390625 76.203125 110.371094 76.691406 111.382812 77.195312 C 104.515625 85.917969 104.515625 85.917969 99.5 87.589844 C 101.644531 82.589844 104.449219 79.40625 108.414062 75.710938 Z M 108.414062 75.710938 "/>
<path style=" stroke:none;fill-rule:nonzero;fill:rgb(88.235295%,35.294119%,23.921569%);fill-opacity:1;" d="M 738.09375 627.964844 C 739.960938 627.90625 741.832031 627.84375 743.757812 627.78125 C 744.808594 627.746094 745.859375 627.710938 746.941406 627.675781 C 749.976562 627.964844 749.976562 627.964844 754.429688 630.933594 C 744.925781 632.945312 744.925781 632.945312 740.414062 630.285156 C 739.648438 629.519531 738.882812 628.753906 738.09375 627.964844 Z M 738.09375 627.964844 "/>
<path style=" stroke:none;fill-rule:nonzero;fill:rgb(6.27451%,19.607843%,40.000001%);fill-opacity:1;" d="M 562.851562 509.203125 C 564.324219 509.691406 565.792969 510.179688 567.308594 510.6875 C 560.726562 515.253906 560.726562 515.253906 556.449219 514.675781 C 555.207031 514.171875 555.207031 514.171875 553.941406 513.65625 C 556.914062 512.171875 559.882812 510.6875 562.851562 509.203125 Z M 562.851562 509.203125 "/>
<path style=" stroke:none;fill-rule:nonzero;fill:rgb(31.764707%,85.490197%,83.529413%);fill-opacity:1;" d="M 152.964844 418.644531 C 156.886719 419.132812 160.804688 419.625 164.847656 420.128906 C 164.847656 420.617188 164.847656 421.109375 164.847656 421.613281 C 159.457031 422.101562 154.0625 422.59375 148.511719 423.097656 C 149.980469 422.609375 151.449219 422.117188 152.964844 421.613281 C 152.964844 420.632812 152.964844 419.652344 152.964844 418.644531 Z M 152.964844 418.644531 "/>
<path style=" stroke:none;fill-rule:nonzero;fill:rgb(24.313726%,41.568628%,53.725493%);fill-opacity:1;" d="M 112.867188 862.523438 C 115.808594 863.996094 115.808594 863.996094 118.808594 865.496094 C 116.847656 865.003906 114.886719 864.515625 112.867188 864.007812 C 112.867188 863.519531 112.867188 863.03125 112.867188 862.523438 Z M 112.867188 862.523438 "/>
<path style=" stroke:none;fill-rule:nonzero;fill:rgb(24.705882%,39.215687%,51.372552%);fill-opacity:1;" d="M 89.105469 826.894531 C 90.589844 832.835938 90.589844 832.835938 90.589844 832.835938 Z M 89.105469 826.894531 "/>
<path style=" stroke:none;fill-rule:nonzero;fill:rgb(30.19608%,36.862746%,47.058824%);fill-opacity:1;" d="M 86.136719 547.800781 C 87.605469 550.003906 87.605469 550.003906 89.105469 552.253906 C 88.125 552.253906 87.144531 552.253906 86.136719 552.253906 C 86.136719 550.785156 86.136719 549.3125 86.136719 547.800781 Z M 86.136719 547.800781 "/>
<path style=" stroke:none;fill-rule:nonzero;fill:rgb(22.745098%,43.529412%,54.901963%);fill-opacity:1;" d="M 758.886719 865.496094 C 763.339844 866.980469 763.339844 866.980469 763.339844 866.980469 Z M 758.886719 865.496094 "/>
<path style=" stroke:none;fill-rule:nonzero;fill:rgb(27.450982%,37.254903%,48.235294%);fill-opacity:1;" d="M 86.136719 705.164062 C 89.105469 706.648438 89.105469 706.648438 89.105469 706.648438 Z M 86.136719 705.164062 "/>
<path style=" stroke:none;fill-rule:nonzero;fill:rgb(16.078432%,39.607844%,50.980395%);fill-opacity:1;" d="M 87.621094 383.015625 C 90.589844 384.5 90.589844 384.5 90.589844 384.5 Z M 87.621094 383.015625 "/>
<path style=" stroke:none;fill-rule:nonzero;fill:rgb(16.862746%,39.607844%,50.980395%);fill-opacity:1;" d="M 86.136719 357.777344 C 89.105469 359.261719 89.105469 359.261719 89.105469 359.261719 Z M 86.136719 357.777344 "/>
<path style=" stroke:none;fill-rule:nonzero;fill:rgb(13.333334%,36.862746%,48.235294%);fill-opacity:1;" d="M 758.886719 261.28125 C 761.855469 262.765625 761.855469 262.765625 761.855469 262.765625 Z M 758.886719 261.28125 "/>
<path style=" stroke:none;fill-rule:nonzero;fill:rgb(13.333334%,36.078432%,47.058824%);fill-opacity:1;" d="M 106.925781 72.742188 C 109.898438 74.226562 109.898438 74.226562 109.898438 74.226562 Z M 106.925781 72.742188 "/>
<path style=" stroke:none;fill-rule:nonzero;fill:rgb(12.941177%,37.64706%,49.803922%);fill-opacity:1;" d="M 316.324219 65.320312 C 319.296875 66.804688 319.296875 66.804688 319.296875 66.804688 Z M 316.324219 65.320312 "/>
</g>
</svg>
